<svg width="24" height="24" viewBox="0 0 24 24" fill="none" xmlns="http://www.w3.org/2000/svg">
<path fill-rule="evenodd" clip-rule="evenodd" d="M7.04 1.3612L7.179 1.3042H21.32L21.46 1.3612L22.638 2.5402L22.695 2.6792V16.8202L22.638 16.9602L21.459 18.1382L21.32 18.1952H14V18.0002C14.0009 17.4885 13.8047 16.996 13.452 16.6252H21.125V2.8752H7.375V10.1572C6.86141 10.0303 6.33273 9.97508 5.804 9.9932V2.6792L5.861 2.5392L7.04 1.3622V1.3612ZM16.571 10.8132L13.762 13.6132C13.6694 13.4414 13.5522 13.2841 13.414 13.1462L12.995 12.7262L15.231 10.4912L11.625 6.7972L12.438 5.9642L16.571 10.0972V10.8132ZM9.62 14.8202L10.94 13.5002L12 14.5602L10.28 16.2802L10.5 16.5002V18.0002H12V19.4502H10.5V19.5502C10.426 20.0491 10.2882 20.5364 10.09 21.0002L12 22.9402L10.94 24.0002L9.29 22.3502C8.89753 22.8512 8.39894 23.2589 7.83008 23.5442C7.26122 23.8295 6.63622 23.9852 6 24.0002C5.36381 23.9851 4.73885 23.8293 4.17002 23.544C3.60118 23.2588 3.10257 22.8511 2.71 22.3502L1.06 24.0002L0 22.9402L1.91 21.0002C1.71424 20.546 1.57649 20.0689 1.5 19.5802V19.5002H0V18.0002H1.5V16.5002L1.72 16.2802L0 14.5602L1.06 13.5002L2.38 14.8202C2.58076 14.0119 3.04624 13.2941 3.70228 12.7811C4.35832 12.2681 5.16718 11.9894 6 11.9894C6.83282 11.9894 7.64168 12.2681 8.29772 12.7811C8.95376 13.2941 9.41924 14.0119 9.62 14.8202ZM7.591 14.1592C7.27633 13.8445 6.87542 13.6302 6.43896 13.5434C6.0025 13.4566 5.5501 13.5012 5.13896 13.6715C4.72782 13.8418 4.37642 14.1301 4.12919 14.5002C3.88195 14.8702 3.75 15.3052 3.75 15.7502H8.25C8.25 15.4547 8.19181 15.1621 8.07874 14.8892C7.96566 14.6162 7.79993 14.3681 7.591 14.1592ZM8.04 21.5392C8.58726 20.9918 8.92671 20.2708 9 19.5002V17.2502H3V19.5002C3.07326 20.271 3.41287 20.9923 3.9604 21.5398C4.50793 22.0873 5.22915 22.4269 6 22.5002C6.77094 22.4271 7.49231 22.0877 8.04 21.5402V21.5392Z" stroke-width="0" fill="white"/>
</svg>
