<svg  viewBox="0 0 24 24" fill="none" xmlns="http://www.w3.org/2000/svg">
<path d="M23.4 19.2H20.4V6.65436C20.4 5.63211 19.5926 4.79999 18.6 4.79999H14.4V7.19999H18V21.6H23.4C23.7315 21.6 24 21.3315 24 21V19.8C24 19.4685 23.7315 19.2 23.4 19.2ZM11.709 2.43786L4.509 4.30311C3.97463 4.44149 3.6 4.93874 3.6 5.50949V19.2H0.6C0.2685 19.2 0 19.4685 0 19.8V21C0 21.3315 0.2685 21.6 0.6 21.6H13.2V3.64424C13.2 2.83499 12.4665 2.24136 11.709 2.43786ZM9.9 13.2C9.40313 13.2 9 12.6626 9 12C9 11.3374 9.40313 10.8 9.9 10.8C10.3969 10.8 10.8 11.3374 10.8 12C10.8 12.6626 10.3969 13.2 9.9 13.2Z" fill="black"/>
</svg>
