<svg class="svg-icon"  viewBox="0 0 1024 1024" version="1.1" xmlns="http://www.w3.org/2000/svg"><path d="M722.189474 299.115789l-88.926316-32.336842c-78.147368-29.642105-167.073684-29.642105-245.221053 0l-88.926316 32.336842c-16.168421 5.389474-29.642105 24.252632-29.642105 40.421053v342.231579c0 18.863158 10.778947 35.031579 29.642105 40.421053l88.926316 32.336842c78.147368 29.642105 167.073684 29.642105 245.221053 0l88.926316-32.336842c16.168421-5.389474 29.642105-24.252632 29.642105-40.421053V339.536842c0-16.168421-10.778947-32.336842-29.642105-40.421053z" fill="#10ABFF" opacity=".4" /><path d="M735.663158 282.947368l-67.368421-26.947368C568.589474 215.578947 455.410526 215.578947 355.705263 256l-67.368421 26.947368c-21.557895 8.084211-35.031579 29.642105-35.031579 51.2v355.705264c0 21.557895 13.473684 43.115789 35.031579 51.2l67.368421 26.947368c51.2 21.557895 102.4 29.642105 156.294737 29.642105s105.094737-10.778947 156.294737-29.642105l67.368421-26.947368c21.557895-8.084211 35.031579-29.642105 35.031579-51.2V334.147368c0-21.557895-13.473684-43.115789-35.031579-51.2z m-2.694737 406.905264c0 8.084211-5.389474 13.473684-10.778947 16.168421l-67.368421 26.947368c-91.621053 37.726316-191.326316 37.726316-282.947369 0l-67.368421-26.947368c-8.084211-2.694737-10.778947-8.084211-10.778947-16.168421V334.147368c0-8.084211 5.389474-13.473684 10.778947-16.168421l67.368421-26.947368c91.621053-37.726316 191.326316-37.726316 282.947369 0l67.368421 26.947368c5.389474 2.694737 10.778947 8.084211 10.778947 16.168421v355.705264z" fill="#10ABFF" /><path d="M512 533.557895c-10.778947 0-18.863158 8.084211-18.863158 18.863158v102.4c0 10.778947 8.084211 18.863158 18.863158 18.863158s18.863158-8.084211 18.863158-18.863158v-102.4c0-10.778947-8.084211-18.863158-18.863158-18.863158zM595.536842 363.789474c-5.389474-8.084211-18.863158-10.778947-26.947368-5.389474-8.084211 5.389474-10.778947 18.863158-5.389474 26.947368l61.978947 88.926316c2.694737 5.389474 10.778947 8.084211 16.168421 8.084211 2.694737 0 8.084211 0 10.778948-2.694737 8.084211-5.389474 10.778947-18.863158 5.389473-26.947369l-61.978947-88.926315zM428.463158 363.789474l-61.978947 88.926315c-5.389474 8.084211-2.694737 21.557895 5.389473 26.947369 2.694737 2.694737 8.084211 2.694737 10.778948 2.694737 5.389474 0 10.778947-2.694737 16.168421-8.084211l61.978947-88.926316c5.389474-8.084211 2.694737-21.557895-5.389474-26.947368-10.778947-5.389474-21.557895-2.694737-26.947368 5.389474z" fill="#10ABFF" /><path d="M512 35.031579C247.915789 35.031579 35.031579 247.915789 35.031579 512S247.915789 988.968421 512 988.968421 988.968421 776.084211 988.968421 512 776.084211 35.031579 512 35.031579z m0 916.210526C269.473684 951.242105 72.757895 754.526316 72.757895 512S269.473684 72.757895 512 72.757895 951.242105 269.473684 951.242105 512 754.526316 951.242105 512 951.242105z" fill="#10ABFF" /></svg>