<svg width="45" height="45" viewBox="0 0 45 45" fill="none" xmlns="http://www.w3.org/2000/svg">
    <path
        d="M22.5923 26.1489C28.6635 26.1489 33.8475 27.1114 33.8475 30.963C33.8475 34.813 28.6968 35.8106 22.5923 35.8106C16.5212 35.8106 11.3372 34.8481 11.3372 30.9981C11.3372 27.1465 16.4879 26.1489 22.5923 26.1489ZM32.2994 23.8297C34.6204 23.7867 37.1158 24.1054 38.0379 24.3316C39.9913 24.7157 41.2762 25.4997 41.8086 26.6391C42.2585 27.5745 42.2585 28.6597 41.8086 29.5935C40.9942 31.3608 38.369 31.9281 37.3487 32.0747C37.138 32.1065 36.9684 31.9233 36.9906 31.7113C37.5119 26.8144 33.3657 24.4926 32.2931 23.9588C32.2471 23.9349 32.2376 23.8982 32.2424 23.8759C32.2455 23.86 32.2645 23.8345 32.2994 23.8297ZM12.6298 23.8264L13.0668 23.8303C13.1017 23.8351 13.1191 23.8606 13.1223 23.8749C13.127 23.8988 13.1175 23.9339 13.0732 23.9594C11.999 24.4932 7.85278 26.815 8.37403 31.7104C8.39621 31.9239 8.22827 32.1056 8.01755 32.0753C6.99724 31.9287 4.37199 31.3614 3.55765 29.5942C3.10611 28.6588 3.10611 27.5751 3.55765 26.6397C4.08998 25.5004 5.37329 24.7163 7.32678 24.3307C8.25045 24.106 10.7442 23.7873 13.0668 23.8303L12.6298 23.8264ZM22.5923 7.5C26.7259 7.5 30.0403 10.8305 30.0403 14.9897C30.0403 19.1472 26.7259 22.4809 22.5923 22.4809C18.4588 22.4809 15.1444 19.1472 15.1444 14.9897C15.1444 10.8305 18.4588 7.5 22.5923 7.5ZM32.7034 8.74902C36.6959 8.74902 39.8313 12.5273 38.7635 16.7359C38.0426 19.5692 35.4332 21.4512 32.526 21.3747C32.2344 21.3667 31.9477 21.3396 31.6704 21.2918C31.4692 21.2567 31.3678 21.0289 31.4819 20.86C32.5909 19.2186 33.2231 17.2442 33.2231 15.1248C33.2231 12.9129 32.5323 10.8509 31.333 9.16015C31.2949 9.10757 31.2664 9.0263 31.3044 8.96574C31.3361 8.91634 31.3947 8.89085 31.4502 8.8781C31.8542 8.79523 32.2693 8.74902 32.7034 8.74902ZM12.6604 8.74886C13.0946 8.74886 13.5097 8.79507 13.9152 8.87794C13.9691 8.89069 14.0293 8.91778 14.061 8.96558C14.0974 9.02614 14.0705 9.10741 14.0325 9.15999C12.8331 10.8507 12.1424 12.9128 12.1424 15.1246C12.1424 17.244 12.7745 19.2184 13.8836 20.8598C13.9976 21.0287 13.8962 21.2566 13.695 21.2916C13.4162 21.341 13.131 21.3665 12.8395 21.3745C9.93222 21.451 7.32282 19.569 6.60195 16.7357C5.53252 12.5272 8.66792 8.74886 12.6604 8.74886Z"
        fill="#B11A50" />
</svg>
    