<svg width="26" height="18" viewBox="0 0 26 18" fill="none" xmlns="http://www.w3.org/2000/svg">
    <path d="M24.0528 0.344971H1.94721C0.871762 0.344971 0 1.21673 0 2.29218V15.4323C0 16.5077 0.871762 17.3795 1.94721 17.3795H24.0528C25.1282 17.3795 26 16.5077 26 15.4323V2.29218C26 1.21673 25.1282 0.344971 24.0528 0.344971Z" fill="#F5F5F5"/>
    <path d="M0.106934 1.65521H25.8927C25.6288 0.892626 24.9049 0.344849 24.0526 0.344849H1.94704C1.09473 0.344849 0.370844 0.892626 0.106934 1.65521Z" fill="#FF4B55"/>
    <path d="M26 5.58621H0V6.89652H26V5.58621Z" fill="#FF4B55"/>
    <path d="M26 2.96539H0V4.2757H26V2.96539Z" fill="#FF4B55"/>
    <path d="M0 9.06897C0 9.31653 0.200738 9.51727 0.448297 9.51727H26V8.20691H0V9.06897Z" fill="#FF4B55"/>
    <path d="M26 13.4487H0V14.759H26V13.4487Z" fill="#FF4B55"/>
    <path d="M25.8927 16.069H0.106934C0.370844 16.8316 1.09478 17.3793 1.94704 17.3793H24.0526C24.9049 17.3793 25.6288 16.8316 25.8927 16.069Z" fill="#FF4B55"/>
    <path d="M26 10.8279H0V12.1382H26V10.8279Z" fill="#FF4B55"/>
    <path d="M0.448297 9.51731H11.6552C11.9028 9.51731 12.1035 9.31658 12.1035 9.06902V0.793145C12.1035 0.545536 11.9028 0.344849 11.6552 0.344849H1.94721C0.871762 0.344899 0 1.21666 0 2.29211V9.06902C0 9.31663 0.200738 9.51731 0.448297 9.51731Z" fill="#41479B"/>
    <path d="M1.25868 1.3739L1.35791 1.67148L1.67158 1.67387C1.71221 1.67422 1.72902 1.72602 1.69637 1.75014L1.44403 1.93646L1.53869 2.23551C1.55098 2.2742 1.50685 2.3063 1.47379 2.28263L1.21862 2.10028L0.96344 2.28268C0.930382 2.30635 0.886354 2.27425 0.898542 2.23556L0.993198 1.93651L0.740866 1.75019C0.708214 1.72602 0.725022 1.67422 0.765647 1.67392L1.07932 1.67153L1.17855 1.37395C1.19135 1.33536 1.24578 1.33536 1.25868 1.3739Z" fill="#F5F5F5"/>
    <path d="M1.25868 2.93047L1.35791 3.22805L1.67158 3.23044C1.71221 3.23079 1.72902 3.28254 1.69637 3.30671L1.44403 3.49308L1.53869 3.79213C1.55098 3.83083 1.50685 3.86292 1.47379 3.83926L1.21862 3.6569L0.96344 3.83931C0.930382 3.86292 0.886354 3.83088 0.898542 3.79218L0.993198 3.49313L0.740866 3.30676C0.708214 3.28259 0.725022 3.23085 0.765647 3.23049L1.07932 3.2281L1.17855 2.93053C1.19135 2.89198 1.24578 2.89198 1.25868 2.93047Z" fill="#F5F5F5"/>
    <path d="M1.25868 4.48715L1.35791 4.78473L1.67158 4.78712C1.71221 4.78747 1.72902 4.83922 1.69637 4.86339L1.44403 5.04976L1.53869 5.34881C1.55098 5.3875 1.50685 5.4196 1.47379 5.39593L1.21862 5.21358L0.96344 5.39598C0.930382 5.4196 0.886354 5.38761 0.898542 5.34886L0.993198 5.04981L0.740866 4.86344C0.708214 4.83927 0.725022 4.78752 0.765647 4.78717L1.07932 4.78478L1.17855 4.4872C1.19135 4.44861 1.24578 4.44861 1.25868 4.48715Z" fill="#F5F5F5"/>
    <path d="M1.25868 6.04379L1.35791 6.34137L1.67158 6.34376C1.71221 6.34411 1.72902 6.39591 1.69637 6.42003L1.44403 6.6064L1.53869 6.90545C1.55098 6.94415 1.50685 6.97624 1.47379 6.95257L1.21862 6.77022L0.96344 6.95263C0.930382 6.97624 0.886354 6.9442 0.898542 6.9055L0.993198 6.60645L0.740866 6.42008C0.708214 6.39601 0.725022 6.34416 0.765647 6.34381L1.07932 6.34142L1.17855 6.04384C1.19135 6.00525 1.24578 6.00525 1.25868 6.04379Z" fill="#F5F5F5"/>
    <path d="M1.25868 7.60043L1.35791 7.898L1.67158 7.90039C1.71221 7.90075 1.72902 7.95249 1.69637 7.97666L1.44403 8.16303L1.53869 8.46208C1.55098 8.50078 1.50685 8.53287 1.47379 8.50921L1.21862 8.32685L0.96344 8.50926C0.930382 8.53287 0.886354 8.50083 0.898542 8.46213L0.993198 8.16308L0.740866 7.97672C0.708214 7.95254 0.725022 7.9008 0.765647 7.90044L1.07932 7.89806L1.17855 7.60048C1.19135 7.56193 1.24578 7.56193 1.25868 7.60043Z" fill="#F5F5F5"/>
    <path d="M2.46718 2.13699L2.5664 2.43457L2.88008 2.43696C2.92071 2.43731 2.93751 2.48911 2.90486 2.51323L2.65253 2.6996L2.74719 2.99865C2.75948 3.03734 2.71535 3.06944 2.68229 3.04577L2.42711 2.86337L2.17194 3.04577C2.13888 3.06939 2.09485 3.03734 2.10704 2.99865L2.20169 2.6996L1.94936 2.51323C1.91671 2.48906 1.93352 2.43731 1.97414 2.43696L2.28782 2.43457L2.38705 2.13699C2.39984 2.0985 2.45433 2.0985 2.46718 2.13699Z" fill="#F5F5F5"/>
    <path d="M2.46718 3.69367L2.5664 3.99125L2.88008 3.99364C2.92071 3.99399 2.93751 4.04579 2.90486 4.06991L2.65253 4.25628L2.74719 4.55533C2.75948 4.59402 2.71535 4.62612 2.68229 4.60245L2.42711 4.42005L2.17194 4.60245C2.13888 4.62607 2.09485 4.59407 2.10704 4.55533L2.20169 4.25628L1.94936 4.06991C1.91671 4.04584 1.93352 3.99399 1.97414 3.99364L2.28782 3.99125L2.38705 3.69367C2.39984 3.65513 2.45433 3.65513 2.46718 3.69367Z" fill="#F5F5F5"/>
    <path d="M2.46718 5.25034L2.5664 5.54792L2.88008 5.55031C2.92071 5.55066 2.93751 5.60241 2.90486 5.62658L2.65253 5.81295L2.74719 6.112C2.75948 6.15069 2.71535 6.18279 2.68229 6.15912L2.42711 5.97672L2.17194 6.15912C2.13888 6.18274 2.09485 6.15069 2.10704 6.112L2.20169 5.81295L1.94936 5.62658C1.91671 5.60241 1.93352 5.55066 1.97414 5.55031L2.28782 5.54792L2.38705 5.25034C2.39984 5.2118 2.45433 5.2118 2.46718 5.25034Z" fill="#F5F5F5"/>
    <path d="M2.46718 6.80698L2.5664 7.10455L2.88008 7.10694C2.92071 7.1073 2.93751 7.15904 2.90486 7.18321L2.65253 7.36958L2.74719 7.66863C2.75948 7.70733 2.71535 7.73942 2.68229 7.71576L2.42711 7.53335L2.17194 7.71576C2.13888 7.73942 2.09485 7.70733 2.10704 7.66863L2.20169 7.36958L1.94936 7.18321C1.91671 7.15904 1.93352 7.1073 1.97414 7.10694L2.28782 7.10455L2.38705 6.80698C2.39984 6.76848 2.45433 6.76848 2.46718 6.80698Z" fill="#F5F5F5"/>
    <path d="M3.67519 1.37382L3.77441 1.6714L4.08809 1.67378C4.12871 1.67414 4.14552 1.72593 4.11287 1.75006L3.86054 1.93637L3.95519 2.23542C3.96748 2.27412 3.92335 2.30621 3.8903 2.28255L3.63512 2.10014L3.37994 2.28255C3.34689 2.30621 3.30286 2.27412 3.31505 2.23542L3.4097 1.93637L3.15737 1.75006C3.12472 1.72588 3.14153 1.67409 3.18215 1.67378L3.49583 1.6714L3.59505 1.37382C3.60785 1.33527 3.66234 1.33527 3.67519 1.37382Z" fill="#F5F5F5"/>
    <path d="M3.67519 2.93045L3.77441 3.22803L4.08809 3.23042C4.12871 3.23077 4.14552 3.28252 4.11287 3.30669L3.86054 3.49306L3.95519 3.79211C3.96748 3.8308 3.92335 3.8629 3.8903 3.83923L3.63512 3.65682L3.37994 3.83923C3.34689 3.86285 3.30286 3.8308 3.31505 3.79211L3.4097 3.49306L3.15737 3.30669C3.12472 3.28252 3.14153 3.23077 3.18215 3.23042L3.49583 3.22803L3.59505 2.93045C3.60785 2.89196 3.66234 2.89196 3.67519 2.93045Z" fill="#F5F5F5"/>
    <path d="M3.67519 4.48713L3.77441 4.78471L4.08809 4.78709C4.12871 4.78745 4.14552 4.8392 4.11287 4.86337L3.86054 5.04973L3.95519 5.34879C3.96748 5.38748 3.92335 5.41957 3.8903 5.39591L3.63512 5.2135L3.37994 5.39591C3.34689 5.41952 3.30286 5.38753 3.31505 5.34879L3.4097 5.04973L3.15737 4.86337C3.12472 4.8392 3.14153 4.78745 3.18215 4.78709L3.49583 4.78471L3.59505 4.48713C3.60785 4.44859 3.66234 4.44859 3.67519 4.48713Z" fill="#F5F5F5"/>
    <path d="M3.67519 6.0438L3.77441 6.34138L4.08809 6.34376C4.12871 6.34412 4.14552 6.39592 4.11287 6.42004L3.86054 6.60641L3.95519 6.90546C3.96748 6.94415 3.92335 6.97624 3.8903 6.95258L3.63512 6.77017L3.37994 6.95258C3.34689 6.97619 3.30286 6.94415 3.31505 6.90546L3.4097 6.60641L3.15737 6.42004C3.12472 6.39597 3.14153 6.34412 3.18215 6.34376L3.49583 6.34138L3.59505 6.0438C3.60785 6.00526 3.66234 6.00526 3.67519 6.0438Z" fill="#F5F5F5"/>
    <path d="M3.67519 7.60043L3.77441 7.89801L4.08809 7.9004C4.12871 7.90075 4.14552 7.9525 4.11287 7.97667L3.86054 8.16304L3.95519 8.46209C3.96748 8.50078 3.92335 8.53288 3.8903 8.50921L3.63512 8.32681L3.37994 8.50921C3.34689 8.53283 3.30286 8.50078 3.31505 8.46209L3.4097 8.16304L3.15737 7.97667C3.12472 7.9525 3.14153 7.90075 3.18215 7.9004L3.49583 7.89801L3.59505 7.60043C3.60785 7.56194 3.66234 7.56194 3.67519 7.60043Z" fill="#F5F5F5"/>
    <path d="M4.88368 2.13699L4.98291 2.43457L5.29658 2.43696C5.33721 2.43731 5.35402 2.48911 5.32137 2.51323L5.06903 2.6996L5.16369 2.99865C5.17598 3.03734 5.13185 3.06944 5.09879 3.04577L4.84362 2.86337L4.58844 3.04577C4.55538 3.06939 4.51135 3.03734 4.52354 2.99865L4.6182 2.6996L4.36587 2.51323C4.33321 2.48906 4.35002 2.43731 4.39065 2.43696L4.70432 2.43457L4.80355 2.13699C4.8163 2.0985 4.87083 2.0985 4.88368 2.13699Z" fill="#F5F5F5"/>
    <path d="M4.88368 3.69367L4.98291 3.99125L5.29658 3.99364C5.33721 3.99399 5.35402 4.04579 5.32137 4.06991L5.06903 4.25628L5.16369 4.55533C5.17598 4.59402 5.13185 4.62612 5.09879 4.60245L4.84362 4.42005L4.58844 4.60245C4.55538 4.62607 4.51135 4.59407 4.52354 4.55533L4.6182 4.25628L4.36587 4.06991C4.33321 4.04584 4.35002 3.99399 4.39065 3.99364L4.70432 3.99125L4.80355 3.69367C4.8163 3.65513 4.87083 3.65513 4.88368 3.69367Z" fill="#F5F5F5"/>
    <path d="M4.88368 5.25034L4.98291 5.54792L5.29658 5.55031C5.33721 5.55066 5.35402 5.60241 5.32137 5.62658L5.06903 5.81295L5.16369 6.112C5.17598 6.15069 5.13185 6.18279 5.09879 6.15912L4.84362 5.97672L4.58844 6.15912C4.55538 6.18274 4.51135 6.15069 4.52354 6.112L4.6182 5.81295L4.36587 5.62658C4.33321 5.60241 4.35002 5.55066 4.39065 5.55031L4.70432 5.54792L4.80355 5.25034C4.8163 5.2118 4.87083 5.2118 4.88368 5.25034Z" fill="#F5F5F5"/>
    <path d="M4.88368 6.80698L4.98291 7.10455L5.29658 7.10694C5.33721 7.1073 5.35402 7.15904 5.32137 7.18321L5.06903 7.36958L5.16369 7.66863C5.17598 7.70733 5.13185 7.73942 5.09879 7.71576L4.84362 7.53335L4.58844 7.71576C4.55538 7.73942 4.51135 7.70733 4.52354 7.66863L4.6182 7.36958L4.36587 7.18321C4.33321 7.15904 4.35002 7.1073 4.39065 7.10694L4.70432 7.10455L4.80355 6.80698C4.8163 6.76848 4.87083 6.76848 4.88368 6.80698Z" fill="#F5F5F5"/>
    <path d="M6.09174 1.37381L6.19097 1.67139L6.50464 1.67378C6.54527 1.67413 6.56208 1.72593 6.52942 1.75005L6.27709 1.93637L6.37175 2.23542C6.38404 2.27411 6.33991 2.30621 6.30685 2.28254L6.05162 2.10019L5.79645 2.28259C5.76339 2.30626 5.71936 2.27416 5.73155 2.23547L5.82621 1.93642L5.57387 1.7501C5.54122 1.72593 5.55803 1.67413 5.59865 1.67383L5.91233 1.67144L6.01156 1.37386C6.02441 1.33527 6.07889 1.33527 6.09174 1.37381Z" fill="#F5F5F5"/>
    <path d="M6.09174 2.93045L6.19097 3.22803L6.50464 3.23042C6.54527 3.23077 6.56208 3.28252 6.52942 3.30669L6.27709 3.49306L6.37175 3.79211C6.38404 3.8308 6.33991 3.8629 6.30685 3.83923L6.05162 3.65682L5.79645 3.83923C5.76339 3.86285 5.71936 3.8308 5.73155 3.79211L5.82621 3.49306L5.57387 3.30669C5.54122 3.28252 5.55803 3.23077 5.59865 3.23042L5.91233 3.22803L6.01156 2.93045C6.02441 2.89196 6.07889 2.89196 6.09174 2.93045Z" fill="#F5F5F5"/>
    <path d="M6.09174 4.48713L6.19097 4.78471L6.50464 4.7871C6.54527 4.78746 6.56208 4.8392 6.52942 4.86337L6.27709 5.04974L6.37175 5.34879C6.38404 5.38749 6.33991 5.41958 6.30685 5.39592L6.05162 5.21346L5.79645 5.39587C5.76339 5.41948 5.71936 5.38744 5.73155 5.34874L5.82621 5.04969L5.57387 4.86332C5.54122 4.83915 5.55803 4.7874 5.59865 4.78705L5.91233 4.78466L6.01156 4.48708C6.02441 4.44859 6.07889 4.44859 6.09174 4.48713Z" fill="#F5F5F5"/>
    <path d="M6.09174 6.0438L6.19097 6.34138L6.50464 6.34376C6.54527 6.34412 6.56208 6.39592 6.52942 6.42004L6.27709 6.60641L6.37175 6.90546C6.38404 6.94415 6.33991 6.97624 6.30685 6.95258L6.05162 6.77017L5.79645 6.95258C5.76339 6.97619 5.71936 6.94415 5.73155 6.90546L5.82621 6.60641L5.57387 6.42004C5.54122 6.39597 5.55803 6.34412 5.59865 6.34376L5.91233 6.34138L6.01156 6.0438C6.02441 6.00526 6.07889 6.00526 6.09174 6.0438Z" fill="#F5F5F5"/>
    <path d="M6.09174 7.60043L6.19097 7.89801L6.50464 7.9004C6.54527 7.90075 6.56208 7.9525 6.52942 7.97667L6.27709 8.16304L6.37175 8.46209C6.38404 8.50078 6.33991 8.53288 6.30685 8.50921L6.05162 8.32681L5.79645 8.50921C5.76339 8.53283 5.71936 8.50078 5.73155 8.46209L5.82621 8.16304L5.57387 7.97667C5.54122 7.9525 5.55803 7.90075 5.59865 7.9004L5.91233 7.89801L6.01156 7.60043C6.02441 7.56194 6.07889 7.56194 6.09174 7.60043Z" fill="#F5F5F5"/>
    <path d="M7.2997 2.13699L7.39892 2.43457L7.7126 2.43696C7.75323 2.43731 7.77003 2.48911 7.73738 2.51323L7.48505 2.6996L7.57971 2.99865C7.59199 3.03734 7.54787 3.06944 7.51481 3.04577L7.25963 2.86337L7.00446 3.04577C6.9714 3.06939 6.92737 3.03734 6.93956 2.99865L7.03421 2.6996L6.78188 2.51323C6.74923 2.48906 6.76604 2.43731 6.80666 2.43696L7.12034 2.43457L7.21957 2.13699C7.23241 2.0985 7.28685 2.0985 7.2997 2.13699Z" fill="#F5F5F5"/>
    <path d="M7.2997 3.69367L7.39892 3.99125L7.7126 3.99364C7.75323 3.99399 7.77003 4.04579 7.73738 4.06991L7.48505 4.25628L7.57971 4.55533C7.59199 4.59402 7.54787 4.62612 7.51481 4.60245L7.25963 4.42005L7.00446 4.60245C6.9714 4.62607 6.92737 4.59407 6.93956 4.55533L7.03421 4.25628L6.78188 4.06991C6.74923 4.04584 6.76604 3.99399 6.80666 3.99364L7.12034 3.99125L7.21957 3.69367C7.23241 3.65513 7.28685 3.65513 7.2997 3.69367Z" fill="#F5F5F5"/>
    <path d="M7.2997 5.25034L7.39892 5.54792L7.7126 5.55031C7.75323 5.55066 7.77003 5.60241 7.73738 5.62658L7.48505 5.81295L7.57971 6.112C7.59199 6.15069 7.54787 6.18279 7.51481 6.15912L7.25963 5.97672L7.00446 6.15912C6.9714 6.18274 6.92737 6.15069 6.93956 6.112L7.03421 5.81295L6.78188 5.62658C6.74923 5.60241 6.76604 5.55066 6.80666 5.55031L7.12034 5.54792L7.21957 5.25034C7.23241 5.2118 7.28685 5.2118 7.2997 5.25034Z" fill="#F5F5F5"/>
    <path d="M7.2997 6.80698L7.39892 7.10455L7.7126 7.10694C7.75323 7.1073 7.77003 7.15904 7.73738 7.18321L7.48505 7.36958L7.57971 7.66863C7.59199 7.70733 7.54787 7.73942 7.51481 7.71576L7.25963 7.53335L7.00446 7.71576C6.9714 7.73942 6.92737 7.70733 6.93956 7.66863L7.03421 7.36958L6.78188 7.18321C6.74923 7.15904 6.76604 7.1073 6.80666 7.10694L7.12034 7.10455L7.21957 6.80698C7.23241 6.76848 7.28685 6.76848 7.2997 6.80698Z" fill="#F5F5F5"/>
    <path d="M8.50819 1.37382L8.60742 1.6714L8.9211 1.67378C8.96172 1.67414 8.97853 1.72593 8.94588 1.75006L8.69355 1.93637L8.7882 2.23542C8.80049 2.27412 8.75636 2.30621 8.7233 2.28255L8.46813 2.10014L8.21295 2.28255C8.17989 2.30621 8.13587 2.27412 8.14805 2.23542L8.24271 1.93637L7.99038 1.75006C7.95773 1.72588 7.97453 1.67409 8.01516 1.67378L8.32883 1.6714L8.42806 1.37382C8.44081 1.33527 8.49535 1.33527 8.50819 1.37382Z" fill="#F5F5F5"/>
    <path d="M8.50819 2.93045L8.60742 3.22803L8.9211 3.23042C8.96172 3.23077 8.97853 3.28252 8.94588 3.30669L8.69355 3.49306L8.7882 3.79211C8.80049 3.8308 8.75636 3.8629 8.7233 3.83923L8.46813 3.65682L8.21295 3.83923C8.17989 3.86285 8.13587 3.8308 8.14805 3.79211L8.24271 3.49306L7.99038 3.30669C7.95773 3.28252 7.97453 3.23077 8.01516 3.23042L8.32883 3.22803L8.42806 2.93045C8.44081 2.89196 8.49535 2.89196 8.50819 2.93045Z" fill="#F5F5F5"/>
    <path d="M8.50819 4.48713L8.60742 4.78471L8.9211 4.78709C8.96172 4.78745 8.97853 4.8392 8.94588 4.86337L8.69355 5.04973L8.7882 5.34879C8.80049 5.38748 8.75636 5.41957 8.7233 5.39591L8.46813 5.2135L8.21295 5.39591C8.17989 5.41952 8.13587 5.38753 8.14805 5.34879L8.24271 5.04973L7.99038 4.86337C7.95773 4.8392 7.97453 4.78745 8.01516 4.78709L8.32883 4.78471L8.42806 4.48713C8.44081 4.44859 8.49535 4.44859 8.50819 4.48713Z" fill="#F5F5F5"/>
    <path d="M8.50819 6.0438L8.60742 6.34138L8.9211 6.34376C8.96172 6.34412 8.97853 6.39592 8.94588 6.42004L8.69355 6.60641L8.7882 6.90546C8.80049 6.94415 8.75636 6.97624 8.7233 6.95258L8.46813 6.77017L8.21295 6.95258C8.17989 6.97619 8.13587 6.94415 8.14805 6.90546L8.24271 6.60641L7.99038 6.42004C7.95773 6.39597 7.97453 6.34412 8.01516 6.34376L8.32883 6.34138L8.42806 6.0438C8.44081 6.00526 8.49535 6.00526 8.50819 6.0438Z" fill="#F5F5F5"/>
    <path d="M8.50819 7.60043L8.60742 7.89801L8.9211 7.9004C8.96172 7.90075 8.97853 7.9525 8.94588 7.97667L8.69355 8.16304L8.7882 8.46209C8.80049 8.50078 8.75636 8.53288 8.7233 8.50921L8.46813 8.32681L8.21295 8.50921C8.17989 8.53283 8.13587 8.50078 8.14805 8.46209L8.24271 8.16304L7.99038 7.97667C7.95773 7.9525 7.97453 7.90075 8.01516 7.9004L8.32883 7.89801L8.42806 7.60043C8.44081 7.56194 8.49535 7.56194 8.50819 7.60043Z" fill="#F5F5F5"/>
    <path d="M9.7162 2.13699L9.81543 2.43457L10.1291 2.43696C10.1697 2.43731 10.1865 2.48911 10.1539 2.51323L9.90155 2.6996L9.99621 2.99865C10.0085 3.03734 9.96437 3.06944 9.93131 3.04577L9.67613 2.86337L9.42096 3.04577C9.3879 3.06939 9.34387 3.03734 9.35606 2.99865L9.45072 2.6996L9.19839 2.51323C9.16573 2.48906 9.18254 2.43731 9.22317 2.43696L9.53684 2.43457L9.63607 2.13699C9.64887 2.0985 9.70335 2.0985 9.7162 2.13699Z" fill="#F5F5F5"/>
    <path d="M9.7162 3.69367L9.81543 3.99125L10.1291 3.99364C10.1697 3.99399 10.1865 4.04579 10.1539 4.06991L9.90155 4.25628L9.99621 4.55533C10.0085 4.59402 9.96437 4.62612 9.93131 4.60245L9.67613 4.42005L9.42096 4.60245C9.3879 4.62607 9.34387 4.59407 9.35606 4.55533L9.45072 4.25628L9.19839 4.06991C9.16573 4.04584 9.18254 3.99399 9.22317 3.99364L9.53684 3.99125L9.63607 3.69367C9.64887 3.65513 9.70335 3.65513 9.7162 3.69367Z" fill="#F5F5F5"/>
    <path d="M9.7162 5.25034L9.81543 5.54792L10.1291 5.55031C10.1697 5.55066 10.1865 5.60241 10.1539 5.62658L9.90155 5.81295L9.99621 6.112C10.0085 6.15069 9.96437 6.18279 9.93131 6.15912L9.67613 5.97672L9.42096 6.15912C9.3879 6.18274 9.34387 6.15069 9.35606 6.112L9.45072 5.81295L9.19839 5.62658C9.16573 5.60241 9.18254 5.55066 9.22317 5.55031L9.53684 5.54792L9.63607 5.25034C9.64887 5.2118 9.70335 5.2118 9.7162 5.25034Z" fill="#F5F5F5"/>
    <path d="M9.7162 6.80698L9.81543 7.10455L10.1291 7.10694C10.1697 7.1073 10.1865 7.15904 10.1539 7.18321L9.90155 7.36958L9.99621 7.66863C10.0085 7.70733 9.96437 7.73942 9.93131 7.71576L9.67613 7.53335L9.42096 7.71576C9.3879 7.73942 9.34387 7.70733 9.35606 7.66863L9.45072 7.36958L9.19839 7.18321C9.16573 7.15904 9.18254 7.1073 9.22317 7.10694L9.53684 7.10455L9.63607 6.80698C9.64887 6.76848 9.70335 6.76848 9.7162 6.80698Z" fill="#F5F5F5"/>
    <path d="M10.9247 1.37382L11.0239 1.6714L11.3376 1.67378C11.3782 1.67414 11.395 1.72593 11.3624 1.75006L11.11 1.93637L11.2047 2.23542C11.217 2.27412 11.1729 2.30621 11.1398 2.28255L10.8846 2.10014L10.6295 2.28255C10.5964 2.30621 10.5524 2.27412 10.5646 2.23542L10.6592 1.93637L10.4069 1.75006C10.3742 1.72588 10.391 1.67409 10.4317 1.67378L10.7453 1.6714L10.8446 1.37382C10.8574 1.33527 10.9118 1.33527 10.9247 1.37382Z" fill="#F5F5F5"/>
    <path d="M10.9247 2.93045L11.0239 3.22803L11.3376 3.23042C11.3782 3.23077 11.395 3.28252 11.3624 3.30669L11.11 3.49306L11.2047 3.79211C11.217 3.8308 11.1729 3.8629 11.1398 3.83923L10.8846 3.65682L10.6295 3.83923C10.5964 3.86285 10.5524 3.8308 10.5646 3.79211L10.6592 3.49306L10.4069 3.30669C10.3742 3.28252 10.391 3.23077 10.4317 3.23042L10.7453 3.22803L10.8446 2.93045C10.8574 2.89196 10.9118 2.89196 10.9247 2.93045Z" fill="#F5F5F5"/>
    <path d="M10.9247 4.48713L11.0239 4.78471L11.3376 4.78709C11.3782 4.78745 11.395 4.8392 11.3624 4.86337L11.11 5.04973L11.2047 5.34879C11.217 5.38748 11.1729 5.41957 11.1398 5.39591L10.8846 5.2135L10.6295 5.39591C10.5964 5.41952 10.5524 5.38753 10.5646 5.34879L10.6592 5.04973L10.4069 4.86337C10.3742 4.8392 10.391 4.78745 10.4317 4.78709L10.7453 4.78471L10.8446 4.48713C10.8574 4.44859 10.9118 4.44859 10.9247 4.48713Z" fill="#F5F5F5"/>
    <path d="M10.9247 6.0438L11.0239 6.34138L11.3376 6.34376C11.3782 6.34412 11.395 6.39592 11.3624 6.42004L11.11 6.60641L11.2047 6.90546C11.217 6.94415 11.1729 6.97624 11.1398 6.95258L10.8846 6.77017L10.6295 6.95258C10.5964 6.97619 10.5524 6.94415 10.5646 6.90546L10.6592 6.60641L10.4069 6.42004C10.3742 6.39597 10.391 6.34412 10.4317 6.34376L10.7453 6.34138L10.8446 6.0438C10.8574 6.00526 10.9118 6.00526 10.9247 6.0438Z" fill="#F5F5F5"/>
    <path d="M10.9247 7.60043L11.0239 7.89801L11.3376 7.9004C11.3782 7.90075 11.395 7.9525 11.3624 7.97667L11.11 8.16304L11.2047 8.46209C11.217 8.50078 11.1729 8.53288 11.1398 8.50921L10.8846 8.32681L10.6295 8.50921C10.5964 8.53283 10.5524 8.50078 10.5646 8.46209L10.6592 8.16304L10.4069 7.97667C10.3742 7.9525 10.391 7.90075 10.4317 7.9004L10.7453 7.89801L10.8446 7.60043C10.8574 7.56194 10.9118 7.56194 10.9247 7.60043Z" fill="#F5F5F5"/>
    </svg>
    