<svg width="23" height="24" viewBox="0 0 23 24" fill="none" xmlns="http://www.w3.org/2000/svg">
    <path d="M6.12663 1.6231C5.75435 1.6231 5.45253 1.32128 5.45253 0.949001C5.45253 0.576719 5.75435 0.274902 6.12663 0.274902H16.9122C17.2845 0.274902 17.5863 0.576719 17.5863 0.949001C17.5863 1.32128 17.2845 1.6231 16.9122 1.6231H12.1935V2.9713H18.2604C19.3755 2.9713 20.2827 3.8785 20.2827 4.9936V7.77987C20.2827 8.89497 19.3755 9.80217 18.2604 9.80217H4.77843C3.66334 9.80217 2.75614 8.89497 2.75614 7.77987V4.9936C2.75614 3.8785 3.66334 2.9713 4.77843 2.9713H10.8453V1.6231H6.12663ZM4.10433 4.9936V7.77987C4.10433 8.15157 4.40674 8.45397 4.77843 8.45397H18.2604C18.6321 8.45397 18.9345 8.15157 18.9345 7.77987V4.9936C18.9345 4.6219 18.6321 4.3195 18.2604 4.3195H4.77843C4.40674 4.3195 4.10433 4.6219 4.10433 4.9936Z" fill="black"/>
    <path d="M14.2158 5.66772C14.5881 5.66772 14.8899 6.01448 14.8899 6.38676C14.8899 6.75905 14.5881 7.06086 14.2158 7.06086C13.8435 7.06086 13.5417 6.75905 13.5417 6.38676C13.5417 6.01448 13.8435 5.66772 14.2158 5.66772Z" fill="black"/>
    <path d="M12.1934 6.38676C12.1934 6.75905 11.8915 7.06086 11.5193 7.06086C11.147 7.06086 10.8452 6.75905 10.8452 6.38676C10.8452 6.01448 11.147 5.66772 11.5193 5.66772C11.8915 5.66772 12.1934 6.01448 12.1934 6.38676Z" fill="black"/>
    <path d="M8.82297 7.06086C8.45069 7.06086 8.14887 6.75905 8.14887 6.38676C8.14887 6.01448 8.45069 5.66772 8.82297 5.66772C9.19525 5.66772 9.49707 6.01448 9.49707 6.38676C9.49707 6.75905 9.19525 7.06086 8.82297 7.06086Z" fill="black"/>
    <path d="M1.07058 18.6705C0.819407 18.3957 0.838552 17.9693 1.11336 17.7181C1.38821 17.4669 1.8146 17.4861 2.06573 17.7609C4.49096 20.4142 7.9365 21.936 11.5188 21.936C15.1011 21.936 18.5466 20.4142 20.9719 17.7609C21.223 17.4861 21.6494 17.4669 21.9242 17.7181C22.199 17.9693 22.2182 18.3957 21.967 18.6705C19.3641 21.5181 15.639 23.2842 11.5188 23.2842C7.39853 23.2842 3.67341 21.5181 1.07058 18.6705Z" fill="black"/>
    <path d="M18.8449 16.09C19.1015 15.8202 19.5282 15.8094 19.7979 16.066C20.0678 16.3225 20.0785 16.7491 19.822 17.019C17.7207 19.2291 14.7694 20.5879 11.5187 20.5879C8.43622 20.5879 5.4331 19.3514 3.2155 17.019C2.95898 16.7491 2.96977 16.3225 3.23959 16.066C3.50941 15.8094 3.93611 15.8202 4.19258 16.09C6.12365 18.1211 8.72545 19.2397 11.5187 19.2397C14.312 19.2397 16.9138 18.1211 18.8449 16.09Z" fill="black"/>
    <path d="M17.6729 14.4161C17.9341 14.6813 17.9309 15.1081 17.6656 15.3694C16.0143 16.9958 13.8315 17.8915 11.5191 17.8915C9.2068 17.8915 7.02393 16.9958 5.37266 15.3694C5.10742 15.1081 5.10418 14.6813 5.36542 14.4161C5.62666 14.1509 6.05354 14.1476 6.31869 14.4089C7.71618 15.7853 9.56308 16.5433 11.5191 16.5433C13.4752 16.5433 15.3221 15.7853 16.7195 14.4089C16.9848 14.1476 17.4116 14.1508 17.6729 14.4161Z" fill="black"/>
    <path d="M15.5475 12.7719C15.7907 13.0538 15.7592 13.4795 15.4773 13.7226C14.3767 14.6719 12.971 15.1948 11.5193 15.1948C10.0675 15.1948 8.66183 14.6719 7.56117 13.7226C7.27926 13.4795 7.2478 13.0538 7.49097 12.7719C7.73414 12.49 8.15981 12.4585 8.44172 12.7017C9.29774 13.44 10.3907 13.8466 11.5193 13.8466C12.6478 13.8466 13.7408 13.44 14.5968 12.7017C14.8787 12.4585 15.3044 12.49 15.5475 12.7719Z" fill="black"/>
    <path d="M11.5189 12.4984C10.9498 12.4984 10.3867 12.3533 9.89047 12.0786C9.56475 11.8983 9.44687 11.4881 9.62717 11.1623C9.80747 10.8366 10.2177 10.7187 10.5434 10.899C10.8403 11.0634 11.1776 11.1502 11.5189 11.1502C11.8602 11.1502 12.1976 11.0634 12.4944 10.899C12.8202 10.7187 13.2304 10.8366 13.4107 11.1623C13.591 11.4881 13.4731 11.8983 13.1474 12.0786C12.6512 12.3533 12.0881 12.4984 11.5189 12.4984Z" fill="black"/>
    </svg>
    