<svg width="60" height="60" viewBox="0 0 60 60" fill="none" xmlns="http://www.w3.org/2000/svg">
    <rect opacity="0.1" width="60" height="60" rx="30" fill="#E71D36" />
    <path
        d="M27.9976 15.3009L15.3488 37.2076C15.1204 37.6032 15 38.052 15 38.5088C15 38.9657 15.1202 39.4145 15.3486 39.8101C15.577 40.2057 15.9055 40.5343 16.3012 40.7627C16.6968 40.9911 17.1456 41.1113 17.6025 41.1113H42.8979C43.3548 41.1113 43.8036 40.9911 44.1992 40.7627C44.5948 40.5343 44.9234 40.2057 45.1518 39.8101C45.3802 39.4145 45.5004 38.9657 45.5004 38.5088C45.5003 38.052 45.38 37.6032 45.1516 37.2076L32.5042 15.3009C32.2758 14.9054 31.9473 14.5769 31.5518 14.3486C31.1563 14.1202 30.7076 14 30.2509 14C29.7941 14 29.3455 14.1202 28.9499 14.3486C28.5544 14.5769 28.2259 14.9054 27.9976 15.3009Z"
        fill="#EE404C" />
    <path
        d="M30.4158 22.0574H30.0858C29.2735 22.0574 28.615 22.7159 28.615 23.5282V30.5587C28.615 31.371 29.2735 32.0295 30.0858 32.0295H30.4158C31.2281 32.0295 31.8866 31.371 31.8866 30.5587V23.5282C31.8866 22.7159 31.2281 22.0574 30.4158 22.0574Z"
        fill="#FDE8EB" />
    <path
        d="M30.2508 37.6054C31.1543 37.6054 31.8866 36.873 31.8866 35.9696C31.8866 35.0661 31.1543 34.3337 30.2508 34.3337C29.3474 34.3337 28.615 35.0661 28.615 35.9696C28.615 36.873 29.3474 37.6054 30.2508 37.6054Z"
        fill="#FDE8EB" />
</svg>
    