<svg width="60" height="60" viewBox="0 0 60 60" fill="none" xmlns="http://www.w3.org/2000/svg">
<path d="M27.9976 17.3009L15.3488 39.2076C15.1204 39.6032 15 40.052 15 40.5088C15 40.9657 15.1202 41.4145 15.3486 41.8101C15.577 42.2057 15.9055 42.5343 16.3012 42.7627C16.6968 42.9911 17.1456 43.1113 17.6025 43.1113H42.8979C43.3548 43.1113 43.8036 42.9911 44.1992 42.7627C44.5948 42.5343 44.9234 42.2057 45.1518 41.8101C45.3802 41.4145 45.5004 40.9657 45.5004 40.5088C45.5003 40.052 45.38 39.6032 45.1516 39.2076L32.5042 17.3009C32.2758 16.9054 31.9473 16.5769 31.5518 16.3486C31.1563 16.1202 30.7076 16 30.2509 16C29.7941 16 29.3455 16.1202 28.9499 16.3486C28.5544 16.5769 28.2259 16.9054 27.9976 17.3009V17.3009Z" fill="#EE404C"/>
<path d="M30.4158 24.0574H30.0858C29.2735 24.0574 28.615 24.7159 28.615 25.5282V32.5587C28.615 33.371 29.2735 34.0295 30.0858 34.0295H30.4158C31.2281 34.0295 31.8866 33.371 31.8866 32.5587V25.5282C31.8866 24.7159 31.2281 24.0574 30.4158 24.0574Z" fill="#FDE8EB"/>
<path d="M30.2508 39.6054C31.1543 39.6054 31.8866 38.873 31.8866 37.9696C31.8866 37.0661 31.1543 36.3337 30.2508 36.3337C29.3474 36.3337 28.615 37.0661 28.615 37.9696C28.615 38.873 29.3474 39.6054 30.2508 39.6054Z" fill="#FDE8EB"/>
<g opacity="0.1">
<rect width="60" height="60" rx="30" fill="#E71D36"/>
</g>
</svg>
