<svg width="20" height="20" viewBox="0 0 20 23" fill="none" xmlns="http://www.w3.org/2000/svg">
    <path
        d="M15 0.90918H6.81818C5.89752 0.910181 4.99501 1.16536 4.21013 1.64658C3.42526 2.12781 2.78848 2.8164 2.37 3.63645H1.36364C1.00198 3.63645 0.655131 3.78012 0.3994 4.03585C0.143668 4.29158 0 4.63843 0 5.00009C0 5.36175 0.143668 5.70859 0.3994 5.96433C0.655131 6.22006 1.00198 6.36373 1.36364 6.36373H1.81818V8.18191H1.36364C1.00198 8.18191 0.655131 8.32558 0.3994 8.58131C0.143668 8.83704 0 9.18388 0 9.54554C0 9.9072 0.143668 10.254 0.3994 10.5098C0.655131 10.7655 1.00198 10.9092 1.36364 10.9092H1.81818V12.7274H1.36364C1.00198 12.7274 0.655131 12.871 0.3994 13.1268C0.143668 13.3825 0 13.7293 0 14.091C0 14.4527 0.143668 14.7995 0.3994 15.0552C0.655131 15.311 1.00198 15.4546 1.36364 15.4546H1.81818V17.2728H1.36364C1.00198 17.2728 0.655131 17.4165 0.3994 17.6722C0.143668 17.9279 0 18.2748 0 18.6365C0 18.9981 0.143668 19.345 0.3994 19.6007C0.655131 19.8564 1.00198 20.0001 1.36364 20.0001H2.37C2.78848 20.8201 3.42526 21.5087 4.21013 21.99C4.99501 22.4712 5.89752 22.7264 6.81818 22.7274H15C16.3256 22.7259 17.5966 22.1987 18.5339 21.2613C19.4713 20.3239 19.9986 19.053 20 17.7274V5.90918C19.9986 4.58354 19.4713 3.31261 18.5339 2.37524C17.5966 1.43787 16.3256 0.910623 15 0.90918V0.90918ZM17.2727 17.7274C17.2727 18.3301 17.0333 18.9082 16.6071 19.3344C16.1808 19.7606 15.6028 20.0001 15 20.0001H6.81818C6.21542 20.0001 5.63734 19.7606 5.21112 19.3344C4.7849 18.9082 4.54545 18.3301 4.54545 17.7274V5.90918C4.54545 5.30642 4.7849 4.72834 5.21112 4.30212C5.63734 3.8759 6.21542 3.63645 6.81818 3.63645H15C15.6028 3.63645 16.1808 3.8759 16.6071 4.30212C17.0333 4.72834 17.2727 5.30642 17.2727 5.90918V17.7274ZM8.63636 9.54554C8.63636 8.94278 8.87581 8.3647 9.30203 7.93848C9.72825 7.51226 10.3063 7.27282 10.9091 7.27282C11.5119 7.27282 12.0899 7.51226 12.5162 7.93848C12.9424 8.3647 13.1818 8.94278 13.1818 9.54554C13.1818 10.1483 12.9424 10.7264 12.5162 11.1526C12.0899 11.5788 11.5119 11.8183 10.9091 11.8183C10.3063 11.8183 9.72825 11.5788 9.30203 11.1526C8.87581 10.7264 8.63636 10.1483 8.63636 9.54554ZM14.5345 15.6655C14.5483 15.753 14.5426 15.8425 14.518 15.9275C14.4934 16.0126 14.4504 16.0912 14.392 16.1578C14.3336 16.2244 14.2614 16.2774 14.1803 16.3129C14.0992 16.3485 14.0113 16.3659 13.9227 16.3637H7.86727C7.77874 16.3659 7.69083 16.3485 7.60974 16.3129C7.52865 16.2774 7.45637 16.2244 7.398 16.1578C7.33964 16.0912 7.29662 16.0126 7.27199 15.9275C7.24736 15.8425 7.24171 15.753 7.25545 15.6655C8.03818 11.7865 13.7527 11.7892 14.5345 15.6655Z"
        stroke-width="1.5" stroke-linecap="round" stroke-linejoin="round" />
</svg>
    