<svg width="45" height="45" viewBox="0 0 45 45" fill="none" xmlns="http://www.w3.org/2000/svg">
<path d="M22.5925 26.1489C28.6636 26.1489 33.8476 27.1114 33.8476 30.963C33.8476 34.813 28.6969 35.8106 22.5925 35.8106C16.5213 35.8106 11.3373 34.8481 11.3373 30.9981C11.3373 27.1465 16.488 26.1489 22.5925 26.1489ZM32.2995 23.8297C34.6206 23.7867 37.1159 24.1054 38.038 24.3316C39.9915 24.7157 41.2764 25.4997 41.8087 26.6391C42.2586 27.5745 42.2586 28.6597 41.8087 29.5935C40.9944 31.3608 38.3691 31.9281 37.3488 32.0747C37.1381 32.1065 36.9686 31.9233 36.9907 31.7113C37.512 26.8144 33.3658 24.4926 32.2932 23.9588C32.2472 23.9349 32.2377 23.8982 32.2425 23.8759C32.2456 23.86 32.2647 23.8345 32.2995 23.8297ZM12.6299 23.8264L13.0669 23.8303C13.1018 23.8351 13.1192 23.8606 13.1224 23.8749C13.1272 23.8988 13.1176 23.9339 13.0733 23.9594C11.9991 24.4932 7.8529 26.815 8.37415 31.7104C8.39633 31.9239 8.22839 32.1056 8.01767 32.0753C6.99736 31.9287 4.37212 31.3614 3.55777 29.5942C3.10623 28.6588 3.10623 27.5751 3.55777 26.6397C4.0901 25.5004 5.37342 24.7163 7.3269 24.3307C8.25057 24.106 10.7443 23.7873 13.0669 23.8303L12.6299 23.8264ZM22.5925 7.5C26.726 7.5 30.0404 10.8305 30.0404 14.9897C30.0404 19.1472 26.726 22.4809 22.5925 22.4809C18.4589 22.4809 15.1445 19.1472 15.1445 14.9897C15.1445 10.8305 18.4589 7.5 22.5925 7.5ZM32.7035 8.74902C36.696 8.74902 39.8315 12.5273 38.7636 16.7359C38.0427 19.5692 35.4333 21.4512 32.5261 21.3747C32.2346 21.3667 31.9478 21.3396 31.6705 21.2918C31.4693 21.2567 31.3679 21.0289 31.482 20.86C32.591 19.2186 33.2232 17.2442 33.2232 15.1248C33.2232 12.9129 32.5324 10.8509 31.3331 9.16015C31.295 9.10757 31.2665 9.0263 31.3046 8.96574C31.3362 8.91634 31.3949 8.89085 31.4503 8.8781C31.8543 8.79523 32.2694 8.74902 32.7035 8.74902ZM12.6606 8.74886C13.0947 8.74886 13.5098 8.79507 13.9154 8.87794C13.9692 8.89069 14.0294 8.91778 14.0611 8.96558C14.0976 9.02614 14.0706 9.10741 14.0326 9.15999C12.8333 10.8507 12.1425 12.9128 12.1425 15.1246C12.1425 17.244 12.7746 19.2184 13.8837 20.8598C13.9977 21.0287 13.8963 21.2566 13.6951 21.2916C13.4163 21.341 13.1311 21.3665 12.8396 21.3745C9.93234 21.451 7.32294 19.569 6.60207 16.7357C5.53264 12.5272 8.66804 8.74886 12.6606 8.74886Z" fill="#B11A50"/>
</svg>
