<svg width="20" height="23" viewBox="0 0 20 23" fill="none" xmlns="http://www.w3.org/2000/svg">
    <path
        d="M15 0.909058H6.81818C5.89752 0.910059 4.99501 1.16524 4.21013 1.64646C3.42526 2.12769 2.78848 2.81628 2.37 3.63633H1.36364C1.00198 3.63633 0.655131 3.78 0.3994 4.03573C0.143668 4.29146 0 4.63831 0 4.99997C0 5.36163 0.143668 5.70847 0.3994 5.9642C0.655131 6.21993 1.00198 6.3636 1.36364 6.3636H1.81818V8.18179H1.36364C1.00198 8.18179 0.655131 8.32545 0.3994 8.58118C0.143668 8.83692 0 9.18376 0 9.54542C0 9.90708 0.143668 10.2539 0.3994 10.5097C0.655131 10.7654 1.00198 10.9091 1.36364 10.9091H1.81818V12.7272H1.36364C1.00198 12.7272 0.655131 12.8709 0.3994 13.1266C0.143668 13.3824 0 13.7292 0 14.0909C0 14.4525 0.143668 14.7994 0.3994 15.0551C0.655131 15.3108 1.00198 15.4545 1.36364 15.4545H1.81818V17.2727H1.36364C1.00198 17.2727 0.655131 17.4164 0.3994 17.6721C0.143668 17.9278 0 18.2747 0 18.6363C0 18.998 0.143668 19.3448 0.3994 19.6006C0.655131 19.8563 1.00198 20 1.36364 20H2.37C2.78848 20.82 3.42526 21.5086 4.21013 21.9898C4.99501 22.4711 5.89752 22.7262 6.81818 22.7272H15C16.3256 22.7258 17.5966 22.1985 18.5339 21.2612C19.4713 20.3238 19.9986 19.0529 20 17.7272V5.90906C19.9986 4.58342 19.4713 3.31249 18.5339 2.37512C17.5966 1.43775 16.3256 0.910501 15 0.909058V0.909058ZM17.2727 17.7272C17.2727 18.33 17.0333 18.9081 16.6071 19.3343C16.1808 19.7605 15.6028 20 15 20H6.81818C6.21542 20 5.63734 19.7605 5.21112 19.3343C4.7849 18.9081 4.54545 18.33 4.54545 17.7272V5.90906C4.54545 5.30629 4.7849 4.72822 5.21112 4.302C5.63734 3.87578 6.21542 3.63633 6.81818 3.63633H15C15.6028 3.63633 16.1808 3.87578 16.6071 4.302C17.0333 4.72822 17.2727 5.30629 17.2727 5.90906V17.7272ZM8.63636 9.54542C8.63636 8.94266 8.87581 8.36458 9.30203 7.93836C9.72825 7.51214 10.3063 7.27269 10.9091 7.27269C11.5119 7.27269 12.0899 7.51214 12.5162 7.93836C12.9424 8.36458 13.1818 8.94266 13.1818 9.54542C13.1818 10.1482 12.9424 10.7263 12.5162 11.1525C12.0899 11.5787 11.5119 11.8181 10.9091 11.8181C10.3063 11.8181 9.72825 11.5787 9.30203 11.1525C8.87581 10.7263 8.63636 10.1482 8.63636 9.54542ZM14.5345 15.6654C14.5483 15.7529 14.5426 15.8423 14.518 15.9274C14.4934 16.0125 14.4504 16.0911 14.392 16.1577C14.3336 16.2243 14.2614 16.2772 14.1803 16.3128C14.0992 16.3484 14.0113 16.3657 13.9227 16.3636H7.86727C7.77874 16.3657 7.69083 16.3484 7.60974 16.3128C7.52865 16.2772 7.45637 16.2243 7.398 16.1577C7.33964 16.0911 7.29662 16.0125 7.27199 15.9274C7.24736 15.8423 7.24171 15.7529 7.25545 15.6654C8.03818 11.7863 13.7527 11.7891 14.5345 15.6654Z"
        fill="white" />
</svg>