<svg width="18" height="19" viewBox="0 0 18 19" fill="none" xmlns="http://www.w3.org/2000/svg">
    <path
        d="M8.65012 15.0245C8.6504 14.0854 8.90382 13.1637 9.38372 12.3564C9.86361 11.5491 10.5522 10.8861 11.3772 10.4371C12.2021 9.98803 13.1328 9.76958 14.0714 9.8047C15.01 9.83982 15.9218 10.1272 16.7108 10.6367C16.7164 10.2496 16.7194 9.83658 16.7194 9.3909C16.7194 7.09939 16.6414 5.6692 16.4874 4.18779H16.5093C16.4241 3.36231 16.1088 2.57732 15.5993 1.92223C15.0898 1.26713 14.4065 0.768262 13.6273 0.482422C13.5861 0.466836 13.5449 0.451992 13.5033 0.437891C13.1954 0.334397 12.877 0.26508 12.5539 0.231191L12.5231 0.227852C11.2905 0.101309 11.0927 0 8.49349 0C5.8943 0 5.47378 0.101309 4.24229 0.229707L4.21149 0.233047C3.87232 0.268659 3.53841 0.343374 3.21642 0.455703V0.439004C2.41355 0.711935 1.70579 1.20931 1.17703 1.87216C0.648261 2.53501 0.32067 3.33555 0.233085 4.17889C0.0786846 5.66326 0 7.09494 0 9.3909C0 11.6869 0.0786846 13.1185 0.233085 14.6029C0.338516 15.6158 0.78917 16.5617 1.50943 17.2818C2.2297 18.0018 3.17575 18.4523 4.18885 18.5577L4.21965 18.561C5.45225 18.6894 5.64971 18.7907 8.2489 18.7907C9.10998 18.7907 9.73352 18.7796 10.2231 18.7599C9.72453 18.274 9.32847 17.693 9.0583 17.0514C8.78813 16.4098 8.64934 15.7206 8.65012 15.0245ZM4.30761 4.94111H12.4103C12.6448 4.94111 12.8696 5.03424 13.0354 5.20001C13.2012 5.36579 13.2944 5.59062 13.2944 5.82506C13.2944 6.05949 13.2012 6.28433 13.0354 6.4501C12.8696 6.61587 12.6448 6.709 12.4103 6.709H4.30947C4.075 6.709 3.85012 6.61587 3.68433 6.4501C3.51853 6.28433 3.42538 6.05949 3.42538 5.82506C3.42538 5.59062 3.51853 5.36579 3.68433 5.20001C3.85012 5.03424 4.075 4.94111 4.30947 4.94111H4.30761ZM4.30761 10.4916C4.07623 10.4868 3.85592 10.3916 3.69395 10.2263C3.53199 10.061 3.44127 9.83883 3.44127 9.60743C3.44127 9.37603 3.53199 9.15385 3.69395 8.98856C3.85592 8.82327 4.07623 8.72804 4.30761 8.7233H8.92885C9.0465 8.72089 9.16345 8.74198 9.27285 8.78533C9.38224 8.82867 9.48188 8.89341 9.56594 8.97575C9.65 9.05809 9.71677 9.15637 9.76236 9.26484C9.80795 9.3733 9.83143 9.48977 9.83143 9.60743C9.83143 9.72508 9.80795 9.84156 9.76236 9.95002C9.71677 10.0585 9.65 10.1568 9.56594 10.2391C9.48188 10.3214 9.38224 10.3862 9.27285 10.4295C9.16345 10.4729 9.0465 10.494 8.92885 10.4916H4.30761Z"
        fill="#5D7285" />
    <path
        d="M13.8748 11.049C13.0884 11.049 12.3197 11.2821 11.6658 11.7189C11.0119 12.1558 10.5023 12.7767 10.2013 13.5031C9.90037 14.2295 9.82163 15.0289 9.97505 15.8001C10.1285 16.5712 10.5072 17.2796 11.0632 17.8356C11.6193 18.3916 12.3278 18.7702 13.0991 18.9236C13.8704 19.077 14.6699 18.9983 15.3964 18.6974C16.123 18.3965 16.744 17.8869 17.1809 17.2332C17.6178 16.5794 17.851 15.8108 17.851 15.0245C17.851 13.9701 17.4321 12.9589 16.6864 12.2134C15.9407 11.4678 14.9294 11.049 13.8748 11.049ZM15.4507 15.6063H13.7958C13.6703 15.6063 13.5499 15.5565 13.4611 15.4678C13.3724 15.379 13.3225 15.2587 13.3225 15.1332V12.5912C13.3225 12.4657 13.3724 12.3454 13.4611 12.2567C13.5499 12.1679 13.6703 12.1181 13.7958 12.1181C13.9213 12.1181 14.0416 12.1679 14.1304 12.2567C14.2191 12.3454 14.269 12.4657 14.269 12.5912V14.6601H15.4507C15.5762 14.6601 15.6966 14.7099 15.7854 14.7986C15.8741 14.8874 15.924 15.0077 15.924 15.1332C15.924 15.2587 15.8741 15.379 15.7854 15.4678C15.6966 15.5565 15.5762 15.6063 15.4507 15.6063Z"
        fill="#5D7285" />
</svg>
    