<svg width="28" height="35" viewBox="0 0 28 35" fill="none" xmlns="http://www.w3.org/2000/svg">
    <path d="M12.6808 18.5088V0.260254H0V18.5088H12.6808ZM4.47063 2.32005H8.21017V4.31121H4.47063V2.32005Z" fill="#B11A50"/>
    <path d="M27.2173 14.5739H25.3491V9.13852C25.3491 6.44461 23.1574 4.25293 20.4635 4.25293C17.7696 4.25293 15.5779 6.44461 15.5779 9.13852V25.9729C15.5779 29.435 12.7612 32.2516 9.29914 32.2516C5.83703 32.2516 3.02046 29.4349 3.02046 25.9729V20.4999H1.0293V25.9729C1.02923 30.5329 4.73904 34.2427 9.29914 34.2427C13.8592 34.2427 17.569 30.5329 17.569 25.9729V9.13852C17.569 7.54253 18.8674 6.24409 20.4634 6.24409C22.0594 6.24409 23.3578 7.54253 23.3578 9.13852V14.5739H21.4896V20.3017H23.3578V22.2829H25.349V20.3017H27.2172V14.5739H27.2173Z" fill="#B11A50"/>
    </svg>
    