<svg viewBox="0 0 45 45" fill="none" xmlns="http://www.w3.org/2000/svg" class="h-14 aspect-square">
    <path d="M21.2109 0.5H23.7892V7.11718H21.2109V0.5Z" fill="#0B799D"></path>
    <path d="M21.2109 38.0547H23.7892V44.5H21.2109V38.0547Z" fill="#0B799D"></path>
    <path d="M22.5 0.5H23.7891V7.11718H22.5V0.5Z" fill="#07485E"></path>
    <path d="M22.5 38.0547H23.7891V44.5H22.5V38.0547Z" fill="#07485E"></path>
    <path d="M10.8984 0.5H13.4767V7.11718H10.8984V0.5Z" fill="#0B799D"></path>
    <path d="M10.8984 38.0547H13.4767V44.5H10.8984V38.0547Z" fill="#0B799D"></path>
    <path d="M31.5234 0.5H34.1017V7.11718H31.5234V0.5Z" fill="#07485E"></path>
    <path d="M37.9727 10.9846H44.5043V13.5627H37.9727V10.9846Z" fill="#07485E"></path>
    <path d="M31.5234 38.0547H34.1017V44.5H31.5234V38.0547Z" fill="#07485E"></path>
    <path d="M0.5 10.9844H7.03164V13.5625H0.5V10.9844Z" fill="#0B799D"></path>
    <path d="M0.5 21.2969H7.03164V23.875H0.5V21.2969Z" fill="#0B799D"></path>
    <path d="M37.9688 21.2969H44.5004V23.875H37.9688V21.2969Z" fill="#07485E"></path>
    <path d="M0.5 31.6091H7.03164V34.1873H0.5V31.6091Z" fill="#0B799D"></path>
    <path d="M37.9688 31.6091H44.5004V34.1873H37.9688V31.6091Z" fill="#07485E"></path>
    <path d="M39.2637 5.82788H21.2158L19.9266 6.91049L18.6375 5.82788H5.74609V13.5622L6.80325 14.8513L5.74609 16.1404V18.7185L6.80325 20.2395L5.74609 21.2966V39.3434H23.794L25.0832 38.0544L26.3723 39.3434H39.2637V31.6091L38.3354 30.32L39.2637 29.031V26.4528L37.9746 25.2155L39.2637 23.8747V5.82788Z" fill="#73BCFF"></path>
    <path d="M39.2588 23.8747L37.9697 25.2155L39.2588 26.4528V29.031L38.3306 30.32L39.2588 31.6091V39.3434H26.3674L25.0783 38.0544L23.7891 39.3434H22.5V5.82788H39.2588V23.8747Z" fill="#5697E5"></path>
    <path d="M39.2637 23.8747V26.4529H21.2158V21.2966H5.74609V18.7185H23.794V23.8747H39.2637Z" fill="#BEEBFA"></path>
    <path d="M14.7659 31.6094C12.6334 31.6094 10.8984 29.8745 10.8984 27.7422C10.8984 25.6099 12.6334 23.875 14.7659 23.875C16.8983 23.875 18.6333 25.6099 18.6333 27.7422C18.6333 29.8745 16.8983 31.6094 14.7659 31.6094Z" fill="#BEEBFA"></path>
    <path d="M30.2346 21.2969C28.1022 21.2969 26.3672 19.562 26.3672 17.4297C26.3672 15.2974 28.1022 13.5625 30.2346 13.5625C32.3671 13.5625 34.102 15.2974 34.102 17.4297C34.102 19.562 32.3671 21.2969 30.2346 21.2969Z" fill="#7ED8F6"></path>
    <path d="M39.2584 29.0312V31.6094H31.5236V34.1875H28.9453V29.0312H39.2584Z" fill="#7ED8F6"></path>
    <path d="M31.5242 10.9841V14.8513H28.9459V13.5622H18.6328V5.82788H21.2111V10.9841H31.5242Z" fill="#BEEBFA"></path>
    <path d="M16.0592 10.9844V16.1406H5.74609V13.5625H13.4809V10.9844H16.0592Z" fill="#BEEBFA"></path>
    <path d="M26.3679 31.6094V39.3437H23.7897V34.1875H13.4766V30.3203H16.0548V31.6094H26.3679Z" fill="#BEEBFA"></path>
    <path d="M22.5 31.6091H26.3674V39.3435H23.7891V34.1873H22.5V31.6091Z" fill="#7ED8F6"></path>
    <path d="M28.9457 13.5625H22.5V10.9844H31.524V14.8516H28.9457V13.5625Z" fill="#7ED8F6"></path>
    <path d="M39.2588 23.8747V26.4529H22.5V18.7185H23.7891V23.8747H39.2588Z" fill="#7ED8F6"></path>
  </svg>