<svg width="24" height="24" viewBox="0 0 22 24" fill="none" xmlns="http://www.w3.org/2000/svg">
    <path d="M21.2171 4.76225L16.9781 0.523238C16.7407 0.286036 16.3561 0.286036 16.1188 0.523238L5.57852 11.0634C5.49354 11.1485 5.43562 11.2569 5.4122 11.3747L4.36197 16.664C4.32252 16.8629 4.38481 17.0686 4.52829 17.212C4.6434 17.3271 4.79838 17.3899 4.95797 17.3899C4.99726 17.3899 5.03696 17.3861 5.07633 17.3783L10.3656 16.328C10.4835 16.3046 10.5918 16.2467 10.6769 16.1617L21.2171 5.62154C21.4544 5.38426 21.4544 4.99961 21.2171 4.76225ZM5.97612 14.7746L6.52506 12.0099L9.73036 15.2153L6.96568 15.7642L5.97612 14.7746Z" fill="black"/>
    <path d="M15.9187 18.5835C10.1078 16.1508 6.3249 20.174 5.19511 20.785C3.75092 21.5661 1.71639 22.4838 1.24345 20.895C0.958127 19.9365 2.50083 18.912 3.52239 18.5927C4.26769 18.3597 3.9494 17.1865 3.19931 17.4209C1.61294 17.9167 -0.279973 19.253 0.0519314 21.1344C0.298531 22.5323 2.05049 23.8073 5.42851 22.0347C7.88381 20.7465 9.55175 18.0781 14.7232 19.4599C16.4219 19.9137 17.7952 21.021 18.3831 22.705C18.6398 23.4398 19.814 23.1238 19.555 22.3819C18.9283 20.5872 17.6604 19.3127 15.9187 18.5835Z" fill="black"/>
    </svg>
    