<svg width="34" height="34" viewBox="0 0 34 34" fill="none" xmlns="http://www.w3.org/2000/svg">
    <path d="M0 32.7857V24.2857H2.4286V31.5714H9.71432V34H1.2143C0.543096 34 0 33.4569 0 32.7857H0Z" fill="#4C4B66"/>
    <path d="M32.7857 34H24.2857V31.5714H31.5714V24.2857H34V32.7857C34 33.4569 33.4569 34 32.7857 34V34Z" fill="#4C4B66"/>
    <path d="M31.5714 2.42858H24.2857V-2.19345e-05H32.7857C33.4569 -2.19345e-05 34 0.543076 34 1.21428V9.71429H31.5714V2.42858Z" fill="#4C4B66"/>
    <path d="M2.4286 9.71429H0V1.21428C0 0.543076 0.543096 -2.19345e-05 1.2143 -2.19345e-05H9.71432V2.42858H2.4286V9.71429Z" fill="#4C4B66"/>
    </svg>
    