<svg width="60" height="60" viewBox="0 0 60 60" fill="none" xmlns="http://www.w3.org/2000/svg">
<path d="M43.8808 28.4042L30.7016 16.3954C30.1231 15.8682 29.2508 15.8682 28.6725 16.3953L15.4933 28.4043C15.0299 28.8265 14.8768 29.4771 15.1032 30.0616C15.3297 30.6462 15.881 31.0239 16.5079 31.0239H18.6128V43.0558C18.6128 43.5329 18.9996 43.9197 19.4767 43.9197H26.7005C27.1776 43.9197 27.5643 43.5329 27.5643 43.0558V35.7504H31.8099V43.0559C31.8099 43.5329 32.1967 43.9197 32.6738 43.9197H39.8973C40.3743 43.9197 40.7611 43.533 40.7611 43.0559V31.0239H42.8664C43.4933 31.0239 44.0447 30.6461 44.2711 30.0616C44.4972 29.477 44.3442 28.8265 43.8808 28.4042Z"/>
<path d="M40.5354 17.7242H34.7341L41.3993 23.7847V18.588C41.3993 18.111 41.0125 17.7242 40.5354 17.7242Z"/>
<g opacity="0.1">
<rect width="60" height="60" rx="30"/>
</g>
</svg>
