<svg width="18" height="18" viewBox="0 0 18 18" fill="none" xmlns="http://www.w3.org/2000/svg">
    <g clip-path="url(#clip0_2106_369)">
        <path
            d="M0.768749 6.5205L6.08324 1.20601C7.69533 -0.401924 10.3047 -0.401924 11.9167 1.20601L17.2312 6.5205C17.7251 7.01174 18.0019 7.68013 18 8.37675V16.1602C17.9983 17.1762 17.1747 17.9991 16.1587 18H1.84126C0.825281 17.9992 0.00167656 17.1762 2.28882e-05 16.1602V8.37675C-0.0019455 7.68013 0.274876 7.01174 0.768749 6.5205ZM2.25002 15.75H5.99999V13.3635C5.99999 11.782 7.28203 10.5 8.8635 10.5H9.13648C10.7179 10.5 12 11.782 12 13.3635V15.75H15.75V8.37675C15.7497 8.27729 15.7104 8.18195 15.6405 8.11125L10.326 2.79676C9.59387 2.06442 8.40668 2.06428 7.67434 2.79641C7.67423 2.79652 7.67409 2.79666 7.67399 2.79676L2.3595 8.11125C2.28957 8.18195 2.25023 8.27729 2.24998 8.37675V15.75H2.25002Z"
            fill="white" />
    </g>
    <defs>
        <clipPath id="clip0_2106_369">
            <rect width="18" height="18" fill="white" transform="matrix(-1 0 0 1 18 0)" />
        </clipPath>
    </defs>
</svg>
    