<svg width="20" height="24" viewBox="0 0 20 24" fill="none" xmlns="http://www.w3.org/2000/svg">
    <path
        d="M18.1303 10.7845C18.1167 10.7616 18.1026 10.739 18.0868 10.7173L10.6891 0.354937C10.5304 0.132141 10.2735 0 9.99988 0C9.72599 0 9.46935 0.132141 9.31068 0.354937L1.91301 10.7173C1.89777 10.739 1.8831 10.7613 1.86979 10.7845C0.350148 13.4055 0.374429 16.5871 1.93499 19.2957C3.60655 22.1975 6.69693 24 9.99988 24C13.3028 24 16.3932 22.1972 18.065 19.2954C19.6253 16.5871 19.6499 13.4053 18.1303 10.7845ZM16.5971 18.4498C15.2271 20.8283 12.6992 22.3059 9.99988 22.3059C7.30087 22.3059 4.77294 20.8286 3.40269 18.4501C2.13632 16.2517 2.10501 13.7822 3.31546 11.668L9.99988 2.30484L16.6843 11.6682C17.8945 13.7825 17.8634 16.2519 16.5971 18.4498Z"
        fill="#454869" />
    <path
        d="M14.4328 13.9485C13.965 13.9485 13.5858 14.3277 13.5858 14.7956C13.5858 16.8036 11.9518 18.4377 9.94339 18.4377C9.47553 18.4377 9.09631 18.8169 9.09631 19.2847C9.09631 19.7526 9.47553 20.1318 9.94339 20.1318C12.8858 20.1318 15.2799 17.7377 15.2799 14.7956C15.2799 14.3277 14.9007 13.9485 14.4328 13.9485Z"
        fill="#454869" />
</svg>
    