<svg width="33" height="25" viewBox="0 0 33 25" fill="none" xmlns="http://www.w3.org/2000/svg">
    <path d="M9.5877 6.8486C9.5877 8.36109 8.36115 9.58764 6.84866 9.58764C5.33617 9.58764 4.10962 8.36109 4.10962 6.8486C4.10962 5.33611 5.33617 4.10956 6.84866 4.10956C8.36115 4.10956 9.5877 5.33611 9.5877 6.8486Z" fill="#5D7285" fill-opacity="0.58"/>
    <path d="M28.7669 0H4.10956C1.84308 0 0 1.84308 0 4.10956V20.5478C0 20.6261 0.0185613 20.6978 0.0225745 20.7741C0.00401328 20.9381 0.0125413 21.1046 0.0717367 21.2607C0.410856 23.186 2.08789 24.6574 4.10956 24.6574H28.7669C31.0334 24.6574 32.8765 22.8143 32.8765 20.5478V4.10956C32.8765 1.84308 31.0334 0 28.7669 0ZM4.10956 2.73904H28.7669C29.5229 2.73904 30.1375 3.35357 30.1375 4.10956V14.9855L22.9312 7.77917C21.9946 6.84258 20.4696 6.84258 19.533 7.77917L13.0129 14.2992L11.2867 12.573C10.3502 11.6364 8.82512 11.6364 7.88853 12.573L2.73703 17.7245V4.10956C2.73904 3.35357 3.35357 2.73904 4.10956 2.73904Z" fill="#5D7285" fill-opacity="0.58"/>
    </svg>
    