<svg width="16" height="17" viewBox="0 0 16 17" fill="none" xmlns="http://www.w3.org/2000/svg"><path d="M8.50391 7.83325C8.50391 7.70064 8.45123 7.57347 8.35746 7.4797C8.26369 7.38593 8.13651 7.33325 8.00391 7.33325C7.8713 7.33325 7.74412 7.38593 7.65035 7.4797C7.55658 7.57347 7.50391 7.70064 7.50391 7.83325V11.8333C7.50391 11.9659 7.55658 12.093 7.65035 12.1868C7.74412 12.2806 7.8713 12.3333 8.00391 12.3333C8.13651 12.3333 8.26369 12.2806 8.35746 12.1868C8.45123 12.093 8.50391 11.9659 8.50391 11.8333V7.83325Z" fill="#696C81"></path><path fill-rule="evenodd" clip-rule="evenodd" d="M8.0026 1.33325C4.0446 1.33325 0.835938 4.54192 0.835938 8.49992C0.835938 12.4579 4.0446 15.6666 8.0026 15.6666C11.9606 15.6666 15.1693 12.4579 15.1693 8.49992C15.1693 4.54192 11.9606 1.33325 8.0026 1.33325ZM1.83594 8.49992C1.83594 6.86442 2.48564 5.2959 3.64211 4.13943C4.79859 2.98295 6.3671 2.33325 8.0026 2.33325C9.63811 2.33325 11.2066 2.98295 12.3631 4.13943C13.5196 5.2959 14.1693 6.86442 14.1693 8.49992C14.1693 10.1354 13.5196 11.7039 12.3631 12.8604C11.2066 14.0169 9.63811 14.6666 8.0026 14.6666C6.3671 14.6666 4.79859 14.0169 3.64211 12.8604C2.48564 11.7039 1.83594 10.1354 1.83594 8.49992Z" fill="#696C81"></path><path d="M8.66927 5.83329C8.66927 6.0101 8.59903 6.17967 8.47401 6.3047C8.34898 6.42972 8.17942 6.49996 8.0026 6.49996C7.82579 6.49996 7.65622 6.42972 7.5312 6.3047C7.40618 6.17967 7.33594 6.0101 7.33594 5.83329C7.33594 5.65648 7.40618 5.48691 7.5312 5.36189C7.65622 5.23686 7.82579 5.16663 8.0026 5.16663C8.17942 5.16663 8.34898 5.23686 8.47401 5.36189C8.59903 5.48691 8.66927 5.65648 8.66927 5.83329Z" fill="#696C81"></path></svg>