<svg width="23" height="23" viewBox="0 0 23 23" fill="none" xmlns="http://www.w3.org/2000/svg">
    <g clip-path="url(#clip0_259_2113)">
    <path d="M11.8379 2.24107C11.7339 2.1857 11.6179 2.15674 11.5001 2.15674C11.3822 2.15674 11.2662 2.1857 11.1622 2.24107L0.380989 7.99107C0.266172 8.05242 0.170172 8.14379 0.103238 8.25545C0.0363036 8.3671 0.000949219 8.49483 0.000949219 8.62501C0.000949219 8.75519 0.0363036 8.88292 0.103238 8.99457C0.170172 9.10622 0.266172 9.1976 0.380989 9.25895L4.5828 11.5L0.379551 13.7411C0.264735 13.8024 0.168734 13.8938 0.1018 14.0054C0.0348661 14.1171 -0.000488281 14.2448 -0.000488281 14.375C-0.000488281 14.5052 0.0348661 14.6329 0.1018 14.7446C0.168734 14.8562 0.264735 14.9476 0.379551 15.0089L11.1608 20.7589C11.2648 20.8143 11.3808 20.8433 11.4986 20.8433C11.6164 20.8433 11.7324 20.8143 11.8364 20.7589L22.6177 15.0089C22.7325 14.9476 22.8285 14.8562 22.8954 14.7446C22.9624 14.6329 22.9977 14.5052 22.9977 14.375C22.9977 14.2448 22.9624 14.1171 22.8954 14.0054C22.8285 13.8938 22.7325 13.8024 22.6177 13.7411L18.4187 11.5L22.6191 9.25895C22.7339 9.1976 22.8299 9.10622 22.8969 8.99457C22.9638 8.88292 22.9992 8.75519 22.9992 8.62501C22.9992 8.49483 22.9638 8.3671 22.8969 8.25545C22.8299 8.14379 22.7339 8.05242 22.6191 7.99107L11.8379 2.24107ZM11.5001 13.5599L2.24543 8.62501L11.5001 3.69007L20.7547 8.62501L11.5001 13.5599Z" fill="#B11A50"/>
    </g>
    <defs>
    <clipPath id="clip0_259_2113">
    <rect width="23" height="23" fill="white"/>
    </clipPath>
    </defs>
    </svg>
    