<svg width="194" height="47" viewBox="0 0 194 47" fill="none" xmlns="http://www.w3.org/2000/svg">
    <path d="M15.1329 47H34.9805C36.8015 47 38.476 46.0058 39.355 44.4098L49.5012 25.8966C50.3175 24.4053 50.3175 22.5947 49.5012 21.1034L39.3498 2.59018C38.476 0.994211 36.7963 0 34.9753 0H15.1329C13.312 0 11.6375 0.994211 10.7584 2.59018L0.612224 21.1034C-0.204075 22.5947 -0.204075 24.4 0.612224 25.8966L10.7584 44.4098C11.6323 46.0058 13.312 47 15.1329 47V47ZM18.4819 6.11178H31.6316C33.4526 6.11178 35.127 7.10599 36.0061 8.70196L42.8034 21.1034C43.6197 22.5947 43.6197 24.4 42.8034 25.8966L36.0061 38.298C35.1323 39.894 33.4526 40.8882 31.6316 40.8882H18.4819C16.6609 40.8882 14.9864 39.894 14.1073 38.298L7.31006 25.8966C6.49377 24.4053 6.49377 22.5947 7.31006 21.1034L14.1073 8.70196C14.9812 7.10599 16.6609 6.11178 18.4819 6.11178" fill="#B11A50"/>
    <path d="M82.5441 25.5775C82.5441 27.1437 82.2494 28.4995 81.66 29.6447C81.0873 30.7731 80.321 31.7078 79.3611 32.4489C78.4179 33.1731 77.3485 33.712 76.1527 34.0657C74.957 34.4025 73.7444 34.5709 72.5149 34.5709H65.8456V16.6851H72.3128C73.576 16.6851 74.8222 16.8366 76.0517 17.1398C77.2811 17.4261 78.3758 17.9145 79.3358 18.605C80.2958 19.2787 81.0705 20.1881 81.66 21.3334C82.2494 22.4786 82.5441 23.8933 82.5441 25.5775ZM78.0474 25.5775C78.0474 24.567 77.879 23.7333 77.5422 23.0765C77.2222 22.4028 76.7843 21.8723 76.2285 21.4849C75.6896 21.0807 75.0664 20.7944 74.3591 20.626C73.6686 20.4576 72.9528 20.3734 72.2118 20.3734H70.0645V30.8321H72.1107C72.8854 30.8321 73.6265 30.7479 74.3338 30.5794C75.058 30.3942 75.6896 30.0995 76.2285 29.6953C76.7843 29.2911 77.2222 28.7521 77.5422 28.0785C77.879 27.4048 78.0474 26.5711 78.0474 25.5775ZM85.4093 34.5709V16.6851H89.7544V34.5709H85.4093ZM109.342 33.4846C108.466 33.9394 107.439 34.3099 106.26 34.5962C105.098 34.8825 103.826 35.0256 102.445 35.0256C101.014 35.0256 99.6917 34.7983 98.4791 34.3436C97.2833 33.8888 96.2475 33.2489 95.3718 32.4236C94.5128 31.5984 93.8392 30.6131 93.3508 29.4679C92.8624 28.3058 92.6182 27.0174 92.6182 25.6027C92.6182 24.1712 92.8624 22.8744 93.3508 21.7123C93.856 20.5502 94.5465 19.565 95.4223 18.7566C96.2981 17.9314 97.3254 17.2998 98.5043 16.8619C99.6832 16.424 100.955 16.2051 102.319 16.2051C103.734 16.2051 105.047 16.424 106.26 16.8619C107.473 17.283 108.458 17.8556 109.216 18.5798L106.487 21.687C106.066 21.1986 105.51 20.8029 104.82 20.4997C104.129 20.1797 103.346 20.0197 102.471 20.0197C101.713 20.0197 101.014 20.1629 100.374 20.4492C99.7338 20.7187 99.178 21.106 98.7064 21.6113C98.2349 22.0997 97.8643 22.6891 97.5949 23.3796C97.3422 24.0533 97.2159 24.7943 97.2159 25.6027C97.2159 26.428 97.3338 27.1859 97.5696 27.8764C97.8054 28.5669 98.1506 29.1647 98.6054 29.67C99.0769 30.1584 99.6496 30.5458 100.323 30.8321C101.014 31.1015 101.797 31.2363 102.673 31.2363C103.178 31.2363 103.658 31.2026 104.113 31.1352C104.567 31.051 104.988 30.9247 105.376 30.7563V27.4974H101.965V24.0112H109.342V33.4846ZM112.867 34.5709V16.6851H117.213V34.5709H112.867ZM143.924 25.5775C143.924 27.1437 143.629 28.4995 143.04 29.6447C142.467 30.7731 141.701 31.7078 140.741 32.4489C139.798 33.1731 138.728 33.712 137.533 34.0657C136.337 34.4025 135.124 34.5709 133.895 34.5709H127.226V16.6851H133.693C134.956 16.6851 136.202 16.8366 137.432 17.1398C138.661 17.4261 139.756 17.9145 140.716 18.605C141.676 19.2787 142.45 20.1881 143.04 21.3334C143.629 22.4786 143.924 23.8933 143.924 25.5775ZM139.427 25.5775C139.427 24.567 139.259 23.7333 138.922 23.0765C138.602 22.4028 138.164 21.8723 137.608 21.4849C137.07 21.0807 136.446 20.7944 135.739 20.626C135.049 20.4576 134.333 20.3734 133.592 20.3734H131.444V30.8321H133.491C134.265 30.8321 135.006 30.7479 135.714 30.5794C136.438 30.3942 137.07 30.0995 137.608 29.6953C138.164 29.2911 138.602 28.7521 138.922 28.0785C139.259 27.4048 139.427 26.5711 139.427 25.5775ZM158.298 34.5709L156.909 31.0594H149.987L148.673 34.5709H143.975L151.478 16.6851H155.671L163.098 34.5709H158.298ZM153.499 21.4597L151.225 27.5985H155.722L153.499 21.4597ZM170.726 20.3734V34.5709H166.406V20.3734H161.354V16.6851H175.779V20.3734H170.726ZM188.372 34.5709L186.982 31.0594H180.06L178.747 34.5709H174.048L181.551 16.6851H185.744L193.172 34.5709H188.372ZM183.572 21.4597L181.298 27.5985H185.795L183.572 21.4597Z" fill="#B11A50"/>
    <path d="M16.1895 15.1624H20.2722V17.4734H18.1538C17.8348 17.4734 17.5761 17.732 17.5761 18.0511C17.5761 18.3702 17.8348 18.6288 18.1538 18.6288H20.2722V19.7843H18.1538C17.8348 19.7843 17.5761 20.043 17.5761 20.3621C17.5761 20.6811 17.8348 20.9398 18.1538 20.9398H20.2722V22.0953H18.1538C17.8348 22.0953 17.5761 22.3539 17.5761 22.673C17.5761 22.9921 17.8348 23.2508 18.1538 23.2508H20.2722V24.4062H18.1538C17.8348 24.4062 17.5761 24.6649 17.5761 24.984C17.5761 25.303 17.8348 25.5617 18.1538 25.5617H20.2722V27.8727H16.1895C15.8705 27.8727 15.6118 27.614 15.6118 27.2949V15.7402C15.6118 15.4211 15.8705 15.1624 16.1895 15.1624Z" fill="#1E3367"/>
    <path d="M34.7543 27.8727H30.6716V25.5617H32.79C33.109 25.5617 33.3677 25.303 33.3677 24.984C33.3677 24.6649 33.109 24.4062 32.79 24.4062H30.6716V23.2508H32.79C33.109 23.2508 33.3677 22.9921 33.3677 22.673C33.3677 22.3539 33.109 22.0953 32.79 22.0953H30.6716V20.9398H32.79C33.109 20.9398 33.3677 20.6811 33.3677 20.3621C33.3677 20.043 33.109 19.7843 32.79 19.7843H30.6716V18.6288H32.79C33.109 18.6288 33.3677 18.3702 33.3677 18.0511C33.3677 17.732 33.109 17.4734 32.79 17.4734H30.6716V15.1624H34.7543C35.0734 15.1624 35.332 15.4211 35.332 15.7402V27.2949C35.332 27.614 35.0734 27.8727 34.7543 27.8727Z" fill="#1E3367"/>
    <path d="M16.1896 31.3776H18.0146C18.1892 30.8599 18.5992 30.45 19.1168 30.2754V29.0282H20.2723V30.2885C20.7719 30.47 21.1658 30.8728 21.336 31.3776H23.792C23.9666 30.8599 24.3766 30.45 24.8942 30.2754V28.9896H22.0055C21.6865 28.9896 21.4278 28.731 21.4278 28.4119V14.5462C21.4278 14.2271 21.6865 13.9684 22.0055 13.9684H28.9384C29.2575 13.9684 29.5161 14.2271 29.5161 14.5462V28.4119C29.5161 28.731 29.2575 28.9896 28.9384 28.9896H26.0497V30.2885C26.5493 30.47 26.9432 30.8728 27.1134 31.3776H29.6079C29.7782 30.8728 30.1721 30.47 30.6716 30.2885V29.0282H31.8271V30.2754C32.3448 30.45 32.7547 30.8599 32.9293 31.3776H34.7543C35.0734 31.3776 35.332 31.6363 35.332 31.9554C35.332 32.2744 35.0734 32.5331 34.7543 32.5331H32.9162C32.6715 33.2064 32.0254 33.6886 31.2686 33.6886C30.5118 33.6886 29.8657 33.2064 29.621 32.5331H27.1003C26.8556 33.2064 26.2095 33.6886 25.4527 33.6886C24.6959 33.6886 24.0498 33.2064 23.8051 32.5331H21.323C21.0783 33.2064 20.4321 33.6886 19.6753 33.6886C18.9186 33.6886 18.2724 33.2064 18.0277 32.5331H16.1896C15.8706 32.5331 15.6119 32.2744 15.6119 31.9554C15.6119 31.6363 15.8706 31.3776 16.1896 31.3776ZM25.472 26.7172C25.791 26.7172 26.0497 26.4585 26.0497 26.1395C26.0497 25.8204 25.791 25.5617 25.472 25.5617C25.1529 25.5617 24.8942 25.8204 24.8942 26.1395C24.8942 26.4585 25.1529 26.7172 25.472 26.7172ZM27.3978 16.3179H23.5077C23.1886 16.3179 22.9299 16.5766 22.9299 16.8957C22.9299 17.2147 23.1886 17.4734 23.5077 17.4734H27.3978C27.7168 17.4734 27.9755 17.2147 27.9755 16.8957C27.9755 16.5766 27.7168 16.3179 27.3978 16.3179ZM27.3978 18.6289H23.5077C23.1886 18.6289 22.9299 18.8875 22.9299 19.2066C22.9299 19.5257 23.1886 19.7843 23.5077 19.7843H27.3978C27.7168 19.7843 27.9755 19.5257 27.9755 19.2066C27.9755 18.8875 27.7168 18.6289 27.3978 18.6289ZM27.3978 20.9398H23.5462C23.2271 20.9398 22.9684 21.1985 22.9684 21.5176C22.9684 21.8366 23.2271 22.0953 23.5462 22.0953H27.3978C27.7168 22.0953 27.9755 21.8366 27.9755 21.5176C27.9755 21.1985 27.7168 20.9398 27.3978 20.9398ZM27.9755 23.8285C27.9755 23.5094 27.7168 23.2508 27.3978 23.2508H23.5462C23.2271 23.2508 22.9684 23.5094 22.9684 23.8285C22.9684 24.1476 23.2271 24.4063 23.5462 24.4063H27.3978C27.7168 24.4063 27.9755 24.1476 27.9755 23.8285Z" fill="#1E3367"/>
    </svg>
    