<svg width="15" height="15" viewBox="0 0 15 15" fill="none" xmlns="http://www.w3.org/2000/svg">
    <path d="M14.6558 7.13571L8.80709 1.28695C8.3458 0.825654 7.59764 0.825654 7.13634 1.28695C6.67505 1.74825 6.67505 2.4964 7.13634 2.9577L12.1492 7.9705L7.13634 12.9833C6.67505 13.4446 6.67505 14.1927 7.13634 14.654C7.59764 15.1153 8.3458 15.1153 8.80709 14.654L14.6558 8.80529C15.1171 8.34514 15.1171 7.59701 14.6558 7.13571ZM7.6234 6.78154L2.98 1.88759C2.51342 1.39645 1.75768 1.39645 1.2911 1.88759C0.824517 2.37873 0.824517 3.17547 1.2911 3.66721L5.09036 7.67136L1.2911 11.6755C0.824517 12.1667 0.824517 12.964 1.2911 13.4551C1.75768 13.9463 2.51342 13.9463 2.98 13.4551L7.6234 8.56117C8.08998 8.07003 8.08998 7.27328 7.6234 6.78154Z" fill="#5D7285"/>
    </svg>
    