<svg width="60" height="60" viewBox="0 0 60 60" fill="none" xmlns="http://www.w3.org/2000/svg">
<g opacity="0.1">
<rect width="60" height="60" rx="30"/>
<rect width="60" height="60" rx="30"/>
</g>
<g opacity="0.1">
<rect width="60" height="60" rx="30"/>
<rect width="60" height="60" rx="30"/>
</g>
<g opacity="0.1">
<rect width="60" height="60" rx="30"/>
<rect width="60" height="60" rx="30"/>
<rect width="60" height="60" rx="30"/>
</g>
<g opacity="0.1">
<rect width="60" height="60" rx="30"/>
<rect width="60" height="60" rx="30"/>
<rect width="60" height="60" rx="30"/>
</g>
<path d="M28.5742 31.3319V12H15V31.3319H28.5742ZM19.7856 14.1821H23.7886V16.2915H19.7856V14.1821Z"/>
<path d="M45.9999 27.1635H44V21.4054C44 18.5516 41.654 16.2298 38.7702 16.2298C35.8865 16.2298 33.5404 18.5516 33.5404 21.4054V39.2392C33.5404 42.9068 30.5253 45.8906 26.8193 45.8906C23.1133 45.8906 20.0982 42.9068 20.0982 39.2392V33.4413H17.9668V39.2392C17.9667 44.0699 21.9379 48 26.8193 48C31.7006 48 35.6718 44.0699 35.6718 39.2392V21.4054C35.6718 19.7147 37.0617 18.3392 38.7702 18.3392C40.4786 18.3392 41.8685 19.7147 41.8685 21.4054V27.1635H39.8686V33.2313H41.8685V35.3302H44V33.2313H45.9999V27.1635H45.9999Z"/>
<path d="M28.5742 31.3319V12H15V31.3319H28.5742ZM19.7856 14.1821H23.7886V16.2915H19.7856V14.1821Z"/>
<path d="M45.9999 27.1635H44V21.4054C44 18.5516 41.654 16.2298 38.7702 16.2298C35.8865 16.2298 33.5404 18.5516 33.5404 21.4054V39.2392C33.5404 42.9068 30.5253 45.8906 26.8193 45.8906C23.1133 45.8906 20.0982 42.9068 20.0982 39.2392V33.4413H17.9668V39.2392C17.9667 44.0699 21.9379 48 26.8193 48C31.7006 48 35.6718 44.0699 35.6718 39.2392V21.4054C35.6718 19.7147 37.0617 18.3392 38.7702 18.3392C40.4786 18.3392 41.8685 19.7147 41.8685 21.4054V27.1635H39.8686V33.2313H41.8685V35.3302H44V33.2313H45.9999V27.1635H45.9999Z"/>
</svg>
