<svg width="22" height="23" viewBox="0 0 22 23" fill="none" xmlns="http://www.w3.org/2000/svg">
    <path
        d="M9.58392 23C11.3195 23 12.7714 21.7627 13.1048 20.125H6.06299C6.39657 21.7627 7.84846 23 9.58392 23Z"
        fill="#4E5064" />
    <path
        d="M16.3037 11.4991C16.2999 11.4991 16.296 11.5 16.2921 11.5C12.594 11.5 9.58387 8.49075 9.58387 4.79172C9.58387 3.77483 9.81778 2.81358 10.2251 1.94918C10.0141 1.92918 9.80041 1.91672 9.58387 1.91672C5.87905 1.91672 2.8756 4.91999 2.8756 8.62499V11.2968C2.8756 13.1933 2.04472 14.9835 0.587038 16.2159C0.101145 16.6309 -0.114516 17.2921 0.0599076 17.9372C0.263109 18.6875 1.00485 19.1667 1.78308 19.1667H17.3799C18.1964 19.1667 18.9661 18.6377 19.1317 17.8375C19.2601 17.2184 19.0398 16.6002 18.5596 16.1968C17.1662 15.0286 16.3602 13.3121 16.3037 11.4991Z"
        fill="#4E5064" />
    <path
        d="M21.0838 4.79173C21.0838 7.43808 18.9386 9.58328 16.292 9.58328C13.6457 9.58328 11.5005 7.43808 11.5005 4.79173C11.5005 2.14537 13.6457 0 16.292 0C18.9386 0 21.0838 2.14537 21.0838 4.79173Z"
        fill="#4E5064" />
</svg>
    