<svg width="60" height="60" viewBox="0 0 60 60" fill="none" xmlns="http://www.w3.org/2000/svg">
<rect opacity="0.1" width="60" height="60" rx="30" fill="#5D7285"/>
<path d="M31.0605 31.7949V13H18V31.7949H31.0605ZM22.6045 15.1215H26.456V17.1722H22.6045V15.1215Z" fill="#5D7285"/>
<path d="M47.8268 27.7423H45.9026V22.1442C45.9026 19.3696 43.6454 17.1123 40.8708 17.1123C38.0962 17.1123 35.8389 19.3696 35.8389 22.1442V39.4826C35.8389 43.0483 32.9379 45.9492 29.3722 45.9492C25.8064 45.9492 22.9055 43.0483 22.9055 39.4826V33.8457H20.8547V39.4826C20.8547 44.1791 24.6755 48 29.3722 48C34.0687 48 37.8896 44.1791 37.8896 39.4826V22.1442C37.8896 20.5004 39.2269 19.1631 40.8707 19.1631C42.5145 19.1631 43.8518 20.5004 43.8518 22.1442V27.7423H41.9276V33.6415H43.8518V35.6821H45.9026V33.6415H47.8268V27.7423H47.8268Z" fill="#5D7285"/>
<path d="M22 22L27 27" stroke="white" stroke-width="1.5" stroke-linecap="round"/>
<path d="M22 27L27 22" stroke="white" stroke-width="1.5" stroke-linecap="round"/>
</svg>
