<svg width="19" height="20" viewBox="0 0 19 20" fill="none" xmlns="http://www.w3.org/2000/svg">
    <path d="M9.54687 0C6.03262 0 3.10156 2.83086 3.10156 6.44531C3.10156 7.82039 3.51477 9.04656 4.30777 10.1955L9.05363 17.601C9.28386 17.961 9.81035 17.9603 10.0401 17.601L14.8066 10.1703C15.5825 9.07343 15.9922 7.78543 15.9922 6.44531C15.9922 2.89137 13.1008 0 9.54687 0ZM9.54687 9.375C7.93152 9.375 6.61719 8.06066 6.61719 6.44531C6.61719 4.82996 7.93152 3.51562 9.54687 3.51562C11.1622 3.51562 12.4766 4.82996 12.4766 6.44531C12.4766 8.06066 11.1622 9.375 9.54687 9.375Z" fill="#B11A50"/>
    <path d="M14.1275 13.4646L11.1771 18.0774C10.4134 19.2681 8.67613 19.2642 7.91609 18.0785L4.96086 13.4658C2.3607 14.067 0.757812 15.1683 0.757812 16.4843C0.757812 18.768 5.28625 19.9999 9.54687 19.9999C13.8075 19.9999 18.3359 18.768 18.3359 16.4843C18.3359 15.1673 16.7308 14.0655 14.1275 13.4646Z" fill="#B11A50"/>
    </svg>
    