<svg width="16" height="16" viewBox="0 0 16 16" fill="none" xmlns="http://www.w3.org/2000/svg">
<g clip-path="url(#clip0_1_68922)">
<path d="M7.99965 14.9992C6.14313 14.9992 4.36266 14.2617 3.0499 12.9489C1.73715 11.6362 0.999649 9.85569 0.999649 7.99918C0.999649 6.14266 1.73715 4.36218 3.0499 3.04943C4.36266 1.73667 6.14313 0.999176 7.99965 0.999176C9.85616 0.999176 11.6366 1.73667 12.9494 3.04943C14.2622 4.36218 14.9996 6.14266 14.9996 7.99918C14.9996 9.85569 14.2622 11.6362 12.9494 12.9489C11.6366 14.2617 9.85616 14.9992 7.99965 14.9992ZM7.99965 15.9992C10.1214 15.9992 12.1562 15.1563 13.6565 13.656C15.1568 12.1557 15.9996 10.1209 15.9996 7.99918C15.9996 5.87744 15.1568 3.84261 13.6565 2.34232C12.1562 0.842031 10.1214 -0.000823975 7.99965 -0.000823975C5.87792 -0.000823975 3.84309 0.842031 2.34279 2.34232C0.842504 3.84261 -0.000350952 5.87744 -0.000350952 7.99918C-0.000350952 10.1209 0.842504 12.1557 2.34279 13.656C3.84309 15.1563 5.87792 15.9992 7.99965 15.9992Z" fill="white"/>
<path d="M7.99965 3.99918C8.13226 3.99918 8.25943 4.05185 8.3532 4.14562C8.44697 4.23939 8.49965 4.36657 8.49965 4.49918V7.49918H11.4996C11.6323 7.49918 11.7594 7.55185 11.8532 7.64562C11.947 7.73939 11.9996 7.86657 11.9996 7.99918C11.9996 8.13178 11.947 8.25896 11.8532 8.35273C11.7594 8.4465 11.6323 8.49918 11.4996 8.49918H8.49965V11.4992C8.49965 11.6318 8.44697 11.759 8.3532 11.8527C8.25943 11.9465 8.13226 11.9992 7.99965 11.9992C7.86704 11.9992 7.73986 11.9465 7.6461 11.8527C7.55233 11.759 7.49965 11.6318 7.49965 11.4992V8.49918H4.49965C4.36704 8.49918 4.23986 8.4465 4.1461 8.35273C4.05233 8.25896 3.99965 8.13178 3.99965 7.99918C3.99965 7.86657 4.05233 7.73939 4.1461 7.64562C4.23986 7.55185 4.36704 7.49918 4.49965 7.49918H7.49965V4.49918C7.49965 4.36657 7.55233 4.23939 7.6461 4.14562C7.73986 4.05185 7.86704 3.99918 7.99965 3.99918Z" fill="white"/>
</g>
<defs>
<clipPath id="clip0_1_68922">
<rect width="16" height="16" fill="white"/>
</clipPath>
</defs>
</svg>
