<svg width="20" height="21" viewBox="0 0 20 21" fill="none" xmlns="http://www.w3.org/2000/svg">
    <path
        d="M19.9998 5.00385C19.9946 3.62282 18.8708 2.50749 17.4898 2.51268C16.5074 2.51635 15.6181 3.09501 15.2168 3.99174L13.0819 3.63478L12.8731 4.86819L15.0186 5.2264C15.1021 6.1567 15.6971 6.9629 16.5615 7.31689L15.9526 11.9098C14.6984 12.0573 13.752 13.1182 13.7483 14.381V14.3904L6.54101 16.2909C6.15658 15.6055 5.47103 15.142 4.69182 15.0406L3.41528 4.82381C4.02257 4.58195 4.51135 4.11243 4.77747 3.51538L6.70979 3.83795L6.91547 2.60516L4.97377 2.28071C4.85573 0.908207 3.64736 -0.108749 2.27485 0.00932498C0.902347 0.12736 -0.114609 1.33569 0.0034656 2.7082C0.104153 3.87886 1.00819 4.82049 2.17374 4.96884L3.45154 15.1837C2.16729 15.6916 1.53789 17.1444 2.04578 18.4287C2.55367 19.7129 4.00647 20.3423 5.29071 19.8344C6.24566 19.4567 6.87265 18.5337 6.87171 17.5068V17.4974L14.079 15.5969C14.7503 16.7999 16.2697 17.2308 17.4727 16.5595C18.6756 15.8882 19.1066 14.3688 18.4353 13.1659C18.1577 12.6684 17.7181 12.281 17.1897 12.068L17.7986 7.47505C19.0515 7.32619 19.9963 6.26559 19.9998 5.00385ZM2.49569 3.75356C1.80517 3.75356 1.2454 3.19378 1.2454 2.50327C1.2454 1.81275 1.80517 1.25297 2.49569 1.25297C3.1862 1.25297 3.74598 1.81275 3.74598 2.50327C3.74598 3.19378 3.1862 3.75356 2.49569 3.75356ZM4.37112 18.7571C3.68061 18.7571 3.12083 18.1973 3.12083 17.5068C3.12083 16.8163 3.68061 16.2565 4.37112 16.2565C5.06164 16.2565 5.62142 16.8163 5.62142 17.5068C5.62142 18.1973 5.06164 18.7571 4.37112 18.7571ZM17.4992 14.381C17.4992 15.0715 16.9394 15.6313 16.2489 15.6313C15.5584 15.6313 14.9986 15.0715 14.9986 14.381C14.9986 13.6905 15.5584 13.1307 16.2489 13.1307C16.9394 13.1307 17.4992 13.6905 17.4992 14.381ZM16.2489 5.00385C16.2489 4.31334 16.8087 3.75356 17.4992 3.75356C18.1897 3.75356 18.7495 4.31334 18.7495 5.00385C18.7495 5.69436 18.1897 6.25414 17.4992 6.25414C16.8087 6.25414 16.2489 5.69436 16.2489 5.00385Z"
        fill="black" />
    <path d="M11.8493 3.42906L10.616 3.22327L10.4102 4.45655L11.6435 4.66235L11.8493 3.42906Z"
        fill="black" />
    <path d="M9.37867 3.01708L8.14551 2.81104L7.93946 4.0442L9.17262 4.25025L9.37867 3.01708Z"
        fill="black" />
</svg>
    