<svg viewBox="0 0 40 40" fill="none" xmlns="http://www.w3.org/2000/svg" class="w-[4rem] h-[4rem]"><rect width="40" height="40" rx="5" fill="#7586FF"></rect><path d="M15.3264 14.8567C15.3264 12.1744 17.5186 10 20.2231 10C22.9275 10 25.1197 12.1733 25.1197 14.8567C25.1197 17.54 22.9275 19.7144 20.2231 19.7144C17.5186 19.7144 15.3264 17.5389 15.3264 14.8567Z" fill="white"></path><path d="M17.3331 21.8755C19.2478 21.5724 21.1983 21.5724 23.1131 21.8755L23.3186 21.9078C26.0164 22.3344 28.0009 24.6422 28.0009 27.3522C27.9994 27.7014 27.9292 28.0468 27.7942 28.3689C27.6592 28.6909 27.4622 28.9832 27.2142 29.2291C26.9663 29.4749 26.6724 29.6696 26.3492 29.8018C26.0261 29.9341 25.68 30.0014 25.3309 30H15.1153C14.7661 30.0014 14.4201 29.9341 14.0969 29.8018C13.7738 29.6696 13.4799 29.4749 13.2319 29.2291C12.984 28.9832 12.7869 28.6909 12.652 28.3689C12.517 28.0468 12.4468 27.7014 12.4453 27.3522C12.4453 24.6422 14.4298 22.3333 17.1275 21.9078L17.3331 21.8755Z" fill="white"></path></svg>