<svg viewBox="0 0 40 40" fill="none" xmlns="http://www.w3.org/2000/svg" class="w-[4rem] h-[4rem]"><rect width="40" height="40" rx="5" fill="#772F75"></rect><path d="M15.8594 15.8594H24.1406V24.1406H15.8594V15.8594Z" fill="white"></path><path d="M29.4141 18.2422C29.7377 18.2422 30 17.9799 30 17.6562C30 17.3326 29.7377 17.0703 29.4141 17.0703H27.6562V15.8984H29.4141C29.7377 15.8984 30 15.6361 30 15.3125C30 14.9889 29.7377 14.7266 29.4141 14.7266H27.6562V13.7109C27.6562 12.957 27.043 12.3438 26.2891 12.3438H25.2734V10.5859C25.2734 10.2623 25.0111 10 24.6875 10C24.3639 10 24.1016 10.2623 24.1016 10.5859V12.3438H22.9297V10.5859C22.9297 10.2623 22.6674 10 22.3438 10C22.0201 10 21.7578 10.2623 21.7578 10.5859V12.3438H20.5859V10.5859C20.5859 10.2623 20.3236 10 20 10C19.6764 10 19.4141 10.2623 19.4141 10.5859V12.3438H18.2422V10.5859C18.2422 10.2623 17.9799 10 17.6562 10C17.3326 10 17.0703 10.2623 17.0703 10.5859V12.3438H15.8984V10.5859C15.8984 10.2623 15.6361 10 15.3125 10C14.9889 10 14.7266 10.2623 14.7266 10.5859V12.3438H13.7109C12.957 12.3438 12.3438 12.957 12.3438 13.7109V14.7266H10.5859C10.2623 14.7266 10 14.9889 10 15.3125C10 15.6361 10.2623 15.8984 10.5859 15.8984H12.3438V17.0703H10.5859C10.2623 17.0703 10 17.3326 10 17.6562C10 17.9799 10.2623 18.2422 10.5859 18.2422H12.3438V19.4141H10.5859C10.2623 19.4141 10 19.6764 10 20C10 20.3236 10.2623 20.5859 10.5859 20.5859H12.3438V21.7578H10.5859C10.2623 21.7578 10 22.0201 10 22.3438C10 22.6674 10.2623 22.9297 10.5859 22.9297H12.3438V24.1016H10.5859C10.2623 24.1016 10 24.3639 10 24.6875C10 25.0111 10.2623 25.2734 10.5859 25.2734H12.3438V26.2891C12.3438 27.043 12.957 27.6562 13.7109 27.6562H14.7266V29.4141C14.7266 29.7377 14.9889 30 15.3125 30C15.6361 30 15.8984 29.7377 15.8984 29.4141V27.6562H17.0703V29.4141C17.0703 29.7377 17.3326 30 17.6562 30C17.9799 30 18.2422 29.7377 18.2422 29.4141V27.6562H19.4141V29.4141C19.4141 29.7377 19.6764 30 20 30C20.3236 30 20.5859 29.7377 20.5859 29.4141V27.6562H21.7578V29.4141C21.7578 29.7377 22.0201 30 22.3438 30C22.6674 30 22.9297 29.7377 22.9297 29.4141V27.6562H24.1016V29.4141C24.1016 29.7377 24.3639 30 24.6875 30C25.0111 30 25.2734 29.7377 25.2734 29.4141V27.6562H26.2891C27.043 27.6562 27.6562 27.043 27.6562 26.2891V25.2734H29.4141C29.7377 25.2734 30 25.0111 30 24.6875C30 24.3639 29.7377 24.1016 29.4141 24.1016H27.6562V22.9297H29.4141C29.7377 22.9297 30 22.6674 30 22.3438C30 22.0201 29.7377 21.7578 29.4141 21.7578H27.6562V20.5859H29.4141C29.7377 20.5859 30 20.3236 30 20C30 19.6764 29.7377 19.4141 29.4141 19.4141H27.6562V18.2422H29.4141ZM25.3125 24.7266C25.3125 25.0502 25.0502 25.3125 24.7266 25.3125H15.2734C14.9498 25.3125 14.6875 25.0502 14.6875 24.7266V15.2734C14.6875 14.9498 14.9498 14.6875 15.2734 14.6875H24.7266C25.0502 14.6875 25.3125 14.9498 25.3125 15.2734V24.7266Z" fill="white"></path></svg>