<svg width="19" height="19" viewBox="0 0 19 19" fill="none" xmlns="http://www.w3.org/2000/svg">
    <path
        d="M9.92553 0C7.70582 0.00652547 5.56502 0.824115 3.90605 2.2989L2.89801 1.29086C2.79226 1.18514 2.65753 1.11314 2.51086 1.08397C2.36418 1.05481 2.21216 1.06978 2.074 1.12701C1.93584 1.18423 1.81775 1.28113 1.73465 1.40546C1.65155 1.52979 1.60718 1.67596 1.60715 1.82551V5.29351C1.60715 5.49407 1.68683 5.68642 1.82864 5.82824C1.97046 5.97006 2.16281 6.04973 2.36337 6.04973H5.83138C5.98092 6.0497 6.12709 6.00533 6.25142 5.92223C6.37575 5.83914 6.47265 5.72104 6.52988 5.58288C6.5871 5.44472 6.60208 5.2927 6.57291 5.14603C6.54375 4.99936 6.47175 4.86463 6.36602 4.75887L5.50772 3.90056C6.50932 3.04493 7.73772 2.49837 9.04386 2.32717C10.35 2.15597 11.6778 2.36751 12.866 2.93611C14.0543 3.50471 15.0521 4.40594 15.7382 5.53045C16.4243 6.65497 16.7694 7.95444 16.7315 9.27121C16.6828 10.9726 15.9985 12.594 14.8133 13.8157C13.6281 15.0373 12.0283 15.7706 10.3291 15.8708C8.63001 15.9711 6.95499 15.431 5.63442 14.3572C4.31384 13.2833 3.44356 11.7536 3.19521 10.0698C3.15974 9.79599 3.02629 9.54432 2.81955 9.36135C2.61281 9.17838 2.34678 9.07651 2.07071 9.0746C1.91052 9.07253 1.75173 9.10467 1.60495 9.16887C1.45817 9.23307 1.32678 9.32785 1.21955 9.44689C1.11233 9.56592 1.03174 9.70647 0.98317 9.85913C0.9346 10.0118 0.919167 10.1731 0.937901 10.3322C1.25265 12.56 2.38257 14.5918 4.10902 16.0346C5.83547 17.4773 8.03571 18.2283 10.284 18.1424C12.5585 18.0328 14.7106 17.08 16.3208 15.4699C17.931 13.8597 18.8837 11.7075 18.9933 9.43304C19.0402 8.21245 18.8404 6.99493 18.406 5.85331C17.9715 4.71169 17.3113 3.66941 16.4648 2.78881C15.6183 1.9082 14.6029 1.20735 13.4793 0.728175C12.3557 0.248999 11.147 0.00133721 9.92553 0V0Z"
        fill="white" />
    <path
        d="M9.54741 5.29352C9.24657 5.29352 8.95805 5.41303 8.74532 5.62575C8.53259 5.83848 8.41309 6.127 8.41309 6.42784V9.67428C8.41317 10.0754 8.57257 10.46 8.85623 10.7436L10.2121 12.0995C10.4261 12.3061 10.7126 12.4204 11.01 12.4178C11.3074 12.4153 11.5919 12.296 11.8022 12.0856C12.0126 11.8753 12.1319 11.5908 12.1344 11.2934C12.137 10.996 12.0227 10.7095 11.8161 10.4955L10.6817 9.36121V6.42784C10.6817 6.127 10.5622 5.83848 10.3495 5.62575C10.1368 5.41303 9.84825 5.29352 9.54741 5.29352Z"
        fill="white" />
</svg>
    