<svg width="16" height="18" viewBox="0 0 17 19" fill="none" xmlns="http://www.w3.org/2000/svg">
    <path d="M5.76927 6.76923C5.93248 6.76923 6.089 6.83406 6.20441 6.94947C6.31982 7.06488 6.38465 7.2214 6.38465 7.38461V14.7692C6.38465 14.9324 6.31982 15.089 6.20441 15.2044C6.089 15.3198 5.93248 15.3846 5.76927 15.3846C5.60606 15.3846 5.44953 15.3198 5.33413 15.2044C5.21872 15.089 5.15388 14.9324 5.15388 14.7692V7.38461C5.15388 7.2214 5.21872 7.06488 5.33413 6.94947C5.44953 6.83406 5.60606 6.76923 5.76927 6.76923ZM8.84619 6.76923C9.0094 6.76923 9.16593 6.83406 9.28133 6.94947C9.39674 7.06488 9.46158 7.2214 9.46158 7.38461V14.7692C9.46158 14.9324 9.39674 15.089 9.28133 15.2044C9.16593 15.3198 9.0094 15.3846 8.84619 15.3846C8.68298 15.3846 8.52646 15.3198 8.41105 15.2044C8.29564 15.089 8.23081 14.9324 8.23081 14.7692V7.38461C8.23081 7.2214 8.29564 7.06488 8.41105 6.94947C8.52646 6.83406 8.68298 6.76923 8.84619 6.76923ZM12.5385 7.38461C12.5385 7.2214 12.4737 7.06488 12.3583 6.94947C12.2429 6.83406 12.0863 6.76923 11.9231 6.76923C11.7599 6.76923 11.6034 6.83406 11.488 6.94947C11.3726 7.06488 11.3077 7.2214 11.3077 7.38461V14.7692C11.3077 14.9324 11.3726 15.089 11.488 15.2044C11.6034 15.3198 11.7599 15.3846 11.9231 15.3846C12.0863 15.3846 12.2429 15.3198 12.3583 15.2044C12.4737 15.089 12.5385 14.9324 12.5385 14.7692V7.38461Z" fill="#B11A50"/>
    <path fill-rule="evenodd" clip-rule="evenodd" d="M16.8462 3.69231C16.8462 4.01873 16.7165 4.33178 16.4857 4.56259C16.2549 4.79341 15.9418 4.92308 15.6154 4.92308H15V16C15 16.6528 14.7407 17.2789 14.2791 17.7406C13.8174 18.2022 13.1913 18.4615 12.5385 18.4615H5.15388C4.50104 18.4615 3.87494 18.2022 3.41331 17.7406C2.95169 17.2789 2.69235 16.6528 2.69235 16V4.92308H2.07696C1.75054 4.92308 1.43749 4.79341 1.20668 4.56259C0.975861 4.33178 0.846191 4.01873 0.846191 3.69231V2.46154C0.846191 2.13512 0.975861 1.82207 1.20668 1.59125C1.43749 1.36044 1.75054 1.23077 2.07696 1.23077H6.38465C6.38465 0.904349 6.51432 0.591298 6.74514 0.360484C6.97595 0.12967 7.289 0 7.61542 0H10.077C10.4034 0 10.7164 0.12967 10.9472 0.360484C11.1781 0.591298 11.3077 0.904349 11.3077 1.23077H15.6154C15.9418 1.23077 16.2549 1.36044 16.4857 1.59125C16.7165 1.82207 16.8462 2.13512 16.8462 2.46154V3.69231ZM4.06835 4.92308L3.92311 4.99569V16C3.92311 16.3264 4.05278 16.6395 4.2836 16.8703C4.51441 17.1011 4.82746 17.2308 5.15388 17.2308H12.5385C12.8649 17.2308 13.178 17.1011 13.4088 16.8703C13.6396 16.6395 13.7693 16.3264 13.7693 16V4.99569L13.624 4.92308H4.06835ZM2.07696 3.69231V2.46154H15.6154V3.69231H2.07696Z" fill="#B11A50"/>
    </svg>
    