<svg width="29" height="32" viewBox="0 0 29 32" fill="none" xmlns="http://www.w3.org/2000/svg">
    <path
        d="M13.7346 24.7271C13.7351 23.236 14.1375 21.7725 14.8994 20.4908C15.6614 19.209 16.7548 18.1562 18.0646 17.4432C19.3744 16.7302 20.8522 16.3834 22.3425 16.4391C23.8328 16.4949 25.2806 16.9512 26.5334 17.7601C26.5423 17.1456 26.547 16.4898 26.547 15.7821C26.547 12.1437 26.4232 9.87281 26.1786 7.52064H26.2134C26.0782 6.20993 25.5775 4.96354 24.7685 3.92338C23.9595 2.88323 22.8746 2.09112 21.6374 1.63726C21.572 1.61252 21.5065 1.58895 21.4405 1.56656C20.9516 1.40223 20.4461 1.29217 19.9331 1.23836L19.8841 1.23306C17.927 1.03213 17.6129 0.871277 13.4859 0.871277C9.35894 0.871277 8.69125 1.03213 6.73589 1.236L6.68698 1.24131C6.14846 1.29785 5.61828 1.41649 5.10702 1.59484V1.56833C3.83223 2.00168 2.70845 2.79141 1.86888 3.84389C1.02931 4.89636 0.509159 6.16746 0.370091 7.5065C0.124935 9.86338 0 12.1366 0 15.7821C0 19.4276 0.124935 21.7008 0.370091 24.0577C0.537494 25.666 1.25304 27.1679 2.39667 28.3112C3.54031 29.4545 5.04244 30.1698 6.65103 30.337L6.69995 30.3424C8.65707 30.5462 8.97058 30.7071 13.0976 30.7071C14.4648 30.7071 15.4548 30.6894 16.2322 30.6582C15.4406 29.8866 14.8117 28.9642 14.3827 27.9455C13.9538 26.9268 13.7334 25.8324 13.7346 24.7271ZM6.83961 8.71676H19.705C20.0773 8.71676 20.4343 8.86463 20.6976 9.12784C20.9609 9.39105 21.1087 9.74804 21.1087 10.1203C21.1087 10.4925 20.9609 10.8495 20.6976 11.1127C20.4343 11.3759 20.0773 11.5238 19.705 11.5238H6.84256C6.47026 11.5238 6.11321 11.3759 5.84996 11.1127C5.5867 10.8495 5.43881 10.4925 5.43881 10.1203C5.43881 9.74804 5.5867 9.39105 5.84996 9.12784C6.11321 8.86463 6.47026 8.71676 6.84256 8.71676H6.83961ZM6.83961 17.5297C6.47222 17.5222 6.12241 17.371 5.86524 17.1086C5.60807 16.8461 5.46404 16.4933 5.46404 16.1259C5.46404 15.7585 5.60807 15.4057 5.86524 15.1433C6.12241 14.8808 6.47222 14.7296 6.83961 14.7221H14.1772C14.364 14.7183 14.5497 14.7518 14.7234 14.8206C14.8971 14.8894 15.0553 14.9922 15.1888 15.1229C15.3222 15.2537 15.4283 15.4097 15.5006 15.582C15.573 15.7542 15.6103 15.9391 15.6103 16.1259C15.6103 16.3127 15.573 16.4977 15.5006 16.6699C15.4283 16.8421 15.3222 16.9982 15.1888 17.1289C15.0553 17.2596 14.8971 17.3624 14.7234 17.4313C14.5497 17.5001 14.364 17.5336 14.1772 17.5297H6.83961Z"
        fill="#B11A50" />
    <path
        d="M22.0304 18.4147C20.7817 18.4147 19.5611 18.7849 18.5229 19.4786C17.4847 20.1722 16.6755 21.158 16.1976 22.3114C15.7198 23.4649 15.5948 24.7341 15.8384 25.9585C16.082 27.183 16.6832 28.3077 17.5662 29.1905C18.4491 30.0733 19.574 30.6745 20.7987 30.9181C22.0234 31.1616 23.2928 31.0366 24.4464 30.5589C25.6 30.0811 26.586 29.272 27.2797 28.234C27.9735 27.1959 28.3437 25.9755 28.3437 24.7271C28.3437 23.0529 27.6786 21.4474 26.4946 20.2636C25.3106 19.0798 23.7048 18.4147 22.0304 18.4147ZM24.5326 25.651H21.9049C21.7056 25.651 21.5145 25.5718 21.3736 25.4309C21.2327 25.29 21.1535 25.0989 21.1535 24.8997V20.8635C21.1535 20.6643 21.2327 20.4732 21.3736 20.3323C21.5145 20.1914 21.7056 20.1123 21.9049 20.1123C22.1041 20.1123 22.2953 20.1914 22.4362 20.3323C22.5771 20.4732 22.6562 20.6643 22.6562 20.8635V24.1484H24.5326C24.7319 24.1484 24.923 24.2276 25.0639 24.3685C25.2048 24.5094 25.284 24.7005 25.284 24.8997C25.284 25.0989 25.2048 25.29 25.0639 25.4309C24.923 25.5718 24.7319 25.651 24.5326 25.651Z"
        fill="#B11A50" />
</svg>
    