<svg width="60" height="60" viewBox="0 0 60 60" fill="none" xmlns="http://www.w3.org/2000/svg">
    <rect opacity="0.1" width="60" height="60" rx="30" fill="#9C179E"/>
    <path d="M43.8808 27.4042L30.7016 15.3954C30.1231 14.8682 29.2508 14.8682 28.6725 15.3953L15.4933 27.4043C15.0299 27.8265 14.8768 28.4771 15.1032 29.0616C15.3297 29.6462 15.881 30.0239 16.5079 30.0239H18.6128V42.0558C18.6128 42.5329 18.9996 42.9197 19.4767 42.9197H26.7005C27.1776 42.9197 27.5644 42.5329 27.5644 42.0558V34.7504H31.8099V42.0559C31.8099 42.5329 32.1967 42.9197 32.6738 42.9197H39.8973C40.3743 42.9197 40.7611 42.533 40.7611 42.0559V30.0239H42.8664C43.4933 30.0239 44.0447 29.6461 44.2711 29.0616C44.4972 28.477 44.3442 27.8265 43.8808 27.4042Z" fill="#9C179E"/>
    <path d="M40.5355 16.7242H34.7341L41.3993 22.7847V17.588C41.3993 17.111 41.0126 16.7242 40.5355 16.7242Z" fill="#9C179E"/>
    </svg>
    