<svg width="16" height="16" viewBox="0 0 16 16" fill="none" xmlns="http://www.w3.org/2000/svg">
    <path
        d="M15.8456 3.35473L12.6456 0.154678C12.5957 0.105247 12.5366 0.0661399 12.4716 0.0395983C12.4067 0.0130567 12.3371 -0.000396902 12.2669 8.91444e-06H11.2002V4.26675C11.2002 4.54965 11.0878 4.82097 10.8878 5.02101C10.6877 5.22105 10.4164 5.33344 10.1335 5.33344H5.86677C5.58387 5.33344 5.31255 5.22105 5.11251 5.02101C4.91247 4.82097 4.80008 4.54965 4.80008 4.26675V8.91444e-06H1.60003C1.17567 8.91444e-06 0.768701 0.168583 0.468637 0.468646C0.168574 0.76871 0 1.17568 0 1.60004V14.4003C0 14.8246 0.168574 15.2316 0.468637 15.5316C0.768701 15.8317 1.17567 16.0003 1.60003 16.0003H2.66671V11.2002C2.66671 10.7759 2.83529 10.3689 3.13535 10.0688C3.43541 9.76875 3.84239 9.60018 4.26674 9.60018H11.7335C12.1579 9.60018 12.5649 9.76875 12.8649 10.0688C13.165 10.3689 13.3336 10.7759 13.3336 11.2002V16.0003H14.4003C14.8246 16.0003 15.2316 15.8317 15.5316 15.5316C15.8317 15.2316 16.0003 14.8246 16.0003 14.4003V3.73341C16.0007 3.66322 15.9872 3.59363 15.9607 3.52865C15.9341 3.46367 15.895 3.40457 15.8456 3.35473Z"
        fill="white" />
    <path d="M5.8667 0H10.1334V4.26674H5.8667V0Z" fill="white" />
    <path
        d="M11.7335 10.6669H4.26674C4.12529 10.6669 3.98963 10.7231 3.88961 10.8231C3.78959 10.9232 3.7334 11.0588 3.7334 11.2003V16.0004H12.2669V11.2003C12.2669 11.0588 12.2107 10.9232 12.1107 10.8231C12.0106 10.7231 11.875 10.6669 11.7335 10.6669Z"
        fill="white" />
</svg>
    