<svg width="32" height="33" viewBox="0 0 32 33" fill="none" xmlns="http://www.w3.org/2000/svg" class="w-[4rem] h-[4rem]"><path fill-rule="evenodd" clip-rule="evenodd" d="M27.7063 1H4.29375C3.15537 1.00131 2.064 1.4541 1.25905 2.25905C0.454103 3.064 0.00130679 4.15538 0 5.29375V28.7062C0.00130679 29.8446 0.454103 30.936 1.25905 31.7409C2.064 32.5459 3.15537 32.9987 4.29375 33H27.7063C28.8446 32.9987 29.936 32.5459 30.741 31.7409C31.5459 30.936 31.9987 29.8446 32 28.7062V5.29375C31.9987 4.15537 31.5459 3.06398 30.741 2.25902C29.936 1.45406 28.8446 1.00127 27.7063 1Z" fill="#FFB557"></path><path d="M20.3562 14.8883C20.3562 14.061 19.9421 13.3256 19.1968 13.1417L11.1638 10.1082C10.5013 9.83241 9.83874 10.1082 9.42466 10.6597C9.01059 11.2113 8.84496 11.9467 9.17622 12.5902L12.9029 21.5069C13.1513 22.1503 13.731 22.61 14.3935 22.61C14.4763 22.61 14.5592 22.61 14.642 22.61C15.3873 22.518 15.967 21.8746 16.0498 21.0472L16.4639 17.4622L19.1968 16.6348C19.8593 16.3591 20.3562 15.7156 20.3562 14.8883ZM16.0498 15.7156C15.3873 15.8994 14.9732 16.5429 14.8904 17.2783L14.4763 20.8634L10.6669 11.8548L18.6999 14.7964L16.0498 15.7156Z" fill="white"></path><path d="M22.7578 18.4733C22.675 18.4733 22.675 18.3814 22.7578 18.4733C22.675 18.3814 22.675 18.3814 22.675 18.3814C22.0953 17.9218 21.4328 17.646 20.6875 17.646C18.8655 17.646 17.3749 19.3006 17.3749 21.323C17.3749 22.518 17.8718 23.5292 18.6171 24.1727C18.6171 24.1727 18.6171 24.2646 18.6999 24.2646C18.6999 24.2646 18.6999 24.2646 18.7827 24.2646C19.3624 24.7242 20.0249 25 20.6875 25C22.5094 25 24 23.3453 24 21.323C24 20.128 23.5031 19.1168 22.7578 18.4733ZM19.0312 21.323C19.0312 20.3118 19.7765 19.4845 20.6875 19.4845C20.7703 19.4845 20.8531 19.4845 20.8531 19.4845L19.114 22.0584C19.114 21.7826 19.0312 21.5988 19.0312 21.323ZM20.6875 23.1615C20.6046 23.1615 20.5218 23.1615 20.5218 23.1615L22.2609 20.5876C22.3437 20.7714 22.4266 21.0472 22.4266 21.323C22.3437 22.3342 21.5984 23.1615 20.6875 23.1615Z" fill="white"></path></svg>