<svg width="13" height="25" viewBox="0 0 13 25" fill="none" xmlns="http://www.w3.org/2000/svg">
    <path
        d="M10.2344 14.3312V3.38147C10.2344 1.51691 8.58655 0 6.56117 0C4.53612 0 2.88861 1.51691 2.88861 3.38147V14.3311C1.38411 15.3864 0.498047 17.0163 0.498047 18.7667C0.498047 21.8452 3.21786 24.3497 6.56117 24.3497C9.90471 24.3497 12.6247 21.8452 12.6247 18.7667C12.6247 17.0165 11.7387 15.3866 10.2344 14.3312ZM6.56117 22.8898C4.09219 22.8898 2.08351 21.0403 2.08351 18.7667C2.08351 17.3756 2.84326 16.0867 4.11586 15.319C4.33941 15.1841 4.47418 14.9545 4.47418 14.7085V3.38147C4.47418 2.32189 5.41045 1.45988 6.56128 1.45988C7.71254 1.45988 8.64902 2.32189 8.64902 3.38147V14.7085C8.64902 14.9546 8.78368 15.1841 9.00733 15.319C10.2797 16.0868 11.0395 17.3757 11.0395 18.7667C11.0393 21.0403 9.03038 22.8898 6.56117 22.8898Z"
        fill="#4C4B66" />
    <path
        d="M7.35416 16.4521V6.80538C7.35416 6.40226 6.99934 6.07544 6.56143 6.07544C6.12353 6.07544 5.7687 6.40226 5.7687 6.80538V16.4521C4.70073 16.7619 3.92639 17.6805 3.92639 18.7667C3.92639 20.1066 5.10598 21.1932 6.56143 21.1932C8.0172 21.1932 9.19668 20.1066 9.19668 18.7667C9.19658 17.6804 8.42224 16.7617 7.35416 16.4521Z"
        fill="#4C4B66" />
</svg>
    