<svg viewBox="0 0 40 40" fill="none" xmlns="http://www.w3.org/2000/svg" class="w-[4rem] h-[4rem]"><rect width="40" height="40" rx="5" fill="#00607B"></rect><path fill-rule="evenodd" clip-rule="evenodd" d="M28.0737 12.4258C26.9941 11.3465 25.5727 10.6764 24.0531 10.5302C22.5335 10.3841 21.0104 10.771 19.7449 11.6247C18.4793 12.4784 17.5501 13.7457 17.1165 15.2094C16.6829 16.6731 16.7719 18.242 17.3682 19.6473C14.8819 21.8228 12.5381 24.156 10.3514 26.6325C10.0975 26.9188 9.97526 27.316 10.0042 27.7211C10.0482 28.3412 10.0811 28.9495 10.103 29.5461C10.1086 29.77 10.2001 29.9831 10.3584 30.1415C10.5168 30.2998 10.7299 30.3913 10.9538 30.3969C11.5491 30.4172 12.1585 30.4516 12.7784 30.4953C13.1835 30.5243 13.5807 30.4016 13.8686 30.1473C14.0056 30.0262 14.1422 29.9047 14.2784 29.7828C14.3819 29.6904 14.4487 29.5638 14.4667 29.4262C14.5122 29.0903 14.5548 28.7509 14.5944 28.4082C14.6549 27.8848 15.1296 27.543 15.6815 27.6438C16.6944 27.8305 17.4913 27.0539 17.3085 26.0422V26.0344C17.21 25.4828 17.5557 25.011 18.0862 24.9586C18.4284 24.9245 18.7686 24.8886 19.1069 24.8508C19.2468 24.8362 19.3766 24.7712 19.4721 24.668C19.9393 24.1625 20.3997 23.6506 20.8534 23.1321C22.2587 23.7283 23.8277 23.8171 25.2913 23.3833C26.755 22.9495 28.0222 22.0202 28.8757 20.7545C29.7293 19.4889 30.116 17.9657 29.9697 16.4462C29.8234 14.9267 29.1531 13.5053 28.0737 12.4258ZM25.4358 17.2026C25.7886 17.1325 26.1127 16.9594 26.3671 16.7051C26.536 16.5362 26.6701 16.3357 26.7615 16.115C26.853 15.8943 26.9 15.6577 26.9 15.4188C26.9 15.1799 26.853 14.9433 26.7615 14.7226C26.6701 14.5019 26.536 14.3014 26.3671 14.1325C26.1127 13.8782 25.7886 13.705 25.4358 13.6349C25.083 13.5648 24.7174 13.6009 24.3851 13.7386C24.0528 13.8762 23.7688 14.1093 23.569 14.4084C23.3692 14.7075 23.2625 15.0591 23.2625 15.4188C23.2625 15.7785 23.3692 16.1301 23.569 16.4291C23.7688 16.7282 24.0528 16.9613 24.3851 17.099C24.7174 17.2367 25.083 17.2728 25.4358 17.2026Z" fill="white"></path></svg>