<svg width="66" height="57" viewBox="0 0 66 57" fill="none" xmlns="http://www.w3.org/2000/svg">
    <path d="M34.6411 14.0873L34.7278 14.1132L34.7316 14.1089C35.1433 14.1835 35.5517 13.937 35.6726 13.5287C36.7746 9.82585 40.2465 7.23906 44.1146 7.23906C44.5725 7.23906 44.9439 6.86764 44.9439 6.4097C44.9439 5.95175 44.5725 5.58035 44.1146 5.58035C39.3607 5.58035 35.3658 8.74553 34.0831 13.056C33.9522 13.4951 34.2023 13.9565 34.6411 14.0873Z" fill="#B11A50" stroke="#F9FFF9" stroke-width="0.282178"/>
    <path d="M53.7495 40.1349H49.62C49.24 40.1349 48.9317 39.8266 48.9317 39.4466C48.9317 39.0666 49.24 38.7583 49.62 38.7583H53.7495C59.4419 38.7583 64.0734 34.1268 64.0734 28.4344C64.0734 22.742 59.4419 18.1105 53.7495 18.1105H53.6502C53.4506 18.1105 53.2609 18.024 53.1301 17.873C52.9993 17.7221 52.9403 17.522 52.9688 17.3244C53.0303 16.8957 53.0613 16.4651 53.0613 16.0457C53.0613 11.1124 49.0472 7.09827 44.1138 7.09827C42.1945 7.09827 40.3643 7.69804 38.8205 8.83316C38.4813 9.08242 37.9995 8.9718 37.8034 8.59866C33.4315 0.273682 22.0125 -0.844278 16.0923 6.39773C13.5984 9.44868 12.6185 13.4175 13.4037 17.2856C13.4903 17.7128 13.1633 18.111 12.7292 18.111H12.4534C6.76107 18.111 2.12952 22.7426 2.12952 28.4349C2.12952 34.1273 6.76107 38.7589 12.4534 38.7589H16.5829C16.963 38.7589 17.2712 39.0671 17.2712 39.4471C17.2712 39.8271 16.963 40.1354 16.5829 40.1354H12.4534C6.00192 40.1354 0.75293 34.8864 0.75293 28.4349C0.75293 22.1643 5.71132 17.0299 11.9131 16.7467C11.3306 12.7336 12.4446 8.68565 15.0265 5.52659C21.3649 -2.22764 33.5119 -1.35849 38.6468 7.28804C40.2849 6.26105 42.1593 5.7223 44.1136 5.7223C50.0906 5.7223 54.8269 10.8096 54.4125 16.7531C60.5572 17.0978 65.4497 22.2051 65.4497 28.4344C65.4497 34.8864 60.2007 40.1349 53.7492 40.1349L53.7495 40.1349Z" fill="#B11A50"/>
    <path d="M15.6616 39.0578C15.6616 48.6236 23.4438 56.4056 33.0095 56.4056C42.5753 56.4056 50.3573 48.6235 50.3573 39.0578C50.3573 29.492 42.5753 21.71 33.0095 21.71C23.4437 21.71 15.6616 29.4921 15.6616 39.0578ZM17.3207 39.0578C17.3207 30.4073 24.3588 23.369 33.0095 23.369C41.66 23.369 48.6983 30.4071 48.6983 39.0578C48.6983 47.7084 41.66 54.7466 33.0095 54.7466C24.3589 54.7466 17.3207 47.7085 17.3207 39.0578Z" fill="#B11A50" stroke="#F9FFF9" stroke-width="0.282178"/>
    <path d="M32.6792 45.9842C32.6792 46.3403 32.9681 46.6292 33.3242 46.6292C33.6803 46.6292 33.9692 46.3407 33.9692 45.9842V32.883C33.9692 32.5269 33.6803 32.2381 33.3242 32.2381C32.9681 32.2381 32.6792 32.5269 32.6792 32.883V45.9842Z" fill="#B11A50" stroke="#B11A50" stroke-width="0.282178"/>
    <path d="M33.3241 33.796L29.7492 37.3709L33.3241 33.796ZM33.3241 33.796L36.8991 37.371C37.0249 37.4968 37.1904 37.5599 37.3551 37.5599L33.3241 33.796ZM28.837 37.371C29.0888 37.6229 29.4974 37.623 29.7491 37.371L32.8679 32.4279L28.837 36.4588C28.585 36.7108 28.585 37.119 28.837 37.371ZM33.7802 32.4278C33.5283 32.1759 33.1197 32.1757 32.868 32.4278L37.3552 37.5599C37.5197 37.5599 37.6854 37.4973 37.8114 37.3708C38.0632 37.1188 38.0631 36.7107 37.8112 36.4588L33.7802 32.4278Z" fill="#B11A50" stroke="#B11A50" stroke-width="0.282178"/>
    </svg>
    