<svg width="21" height="19" viewBox="0 0 21 19" fill="none" xmlns="http://www.w3.org/2000/svg">
    <path d="M5.39715 15.1135C4.01457 15.1135 2.78475 14.2283 2.33818 12.9104L2.30798 12.8111C2.20266 12.4621 2.15854 12.1686 2.15854 11.8749V5.98657L0.0634046 12.9803C-0.206058 14.0089 0.407982 15.0754 1.43823 15.3596L14.7926 18.936C14.9593 18.9791 15.1259 18.9998 15.2901 18.9998C16.1502 18.9998 16.9361 18.429 17.1564 17.5877L17.9344 15.1135H5.39715Z" fill="#B11A50"/>
    <path d="M7.77223 6.04544C8.72484 6.04544 9.49939 5.27074 9.49939 4.31813C9.49939 3.36553 8.72484 2.59082 7.77223 2.59082C6.81963 2.59082 6.04492 3.36553 6.04492 4.31813C6.04492 5.27074 6.81963 6.04544 7.77223 6.04544Z" fill="#B11A50"/>
    <path d="M18.5671 0H5.61263C4.42267 0 3.45361 0.969053 3.45361 2.15918V11.659C3.45361 12.8491 4.42267 13.8182 5.61263 13.8182H18.5671C19.7572 13.8182 20.7263 12.8491 20.7263 11.659V2.15918C20.7263 0.969053 19.7572 0 18.5671 0ZM5.61263 1.72731H18.5671C18.8055 1.72731 18.9989 1.92071 18.9989 2.15918V8.29008L16.2708 5.10666C15.9814 4.7673 15.5625 4.58592 15.1126 4.57564C14.6652 4.57818 14.2456 4.77679 13.9589 5.12058L10.7512 8.97054L9.70628 7.92811C9.11565 7.33748 8.15434 7.33748 7.5645 7.92811L5.18093 10.3109V2.15918C5.18093 1.92071 5.37432 1.72731 5.61263 1.72731Z" fill="#B11A50"/>
    </svg>
    