<svg width="18" height="21" viewBox="0 0 18 21" fill="none" xmlns="http://www.w3.org/2000/svg">
    <path
        d="M8.80631 10.0177C7.43007 10.0177 6.23835 9.52407 5.26463 8.5502C4.29092 7.57648 3.79732 6.38508 3.79732 5.00868C3.79732 3.63275 4.29092 2.44119 5.26479 1.46716C6.23867 0.493601 7.43023 0 8.80631 0C10.1827 0 11.3741 0.493601 12.3478 1.46732C13.3215 2.44103 13.8153 3.63259 13.8153 5.00868C13.8153 6.38508 13.3215 7.57664 12.3477 8.55036C11.3738 9.52391 10.1822 10.0177 8.80631 10.0177Z"
        fill="#B11A50" />
    <path
        d="M0.0420074 15.9913C0.0700893 15.5861 0.126892 15.144 0.210506 14.6772C0.294914 14.207 0.403599 13.7624 0.533701 13.3561C0.668089 12.9361 0.850868 12.5213 1.0768 12.1239C1.31131 11.7114 1.58675 11.3522 1.89582 11.0566C2.21902 10.7473 2.61472 10.4987 3.0723 10.3174C3.5283 10.137 4.03364 10.0456 4.5742 10.0456C4.78649 10.0456 4.9918 10.1327 5.3883 10.3908C5.63232 10.55 5.91776 10.734 6.23635 10.9376C6.50877 11.1111 6.87782 11.2738 7.33366 11.421C7.77839 11.5649 8.22994 11.6379 8.67563 11.6379C9.12131 11.6379 9.57271 11.5649 10.0179 11.421C10.4733 11.2739 10.8423 11.1113 11.1144 10.9377C11.43 10.7361 11.7156 10.552 11.9633 10.3907C12.3593 10.1325 12.5648 10.0454 12.7771 10.0454C13.3178 10.0454 13.823 10.137 14.2788 10.3175C14.7361 10.4986 15.1319 10.7472 15.4554 11.0567C15.7644 11.3525 16.0399 11.7115 16.2741 12.1239C16.4999 12.5213 16.6827 12.9359 16.8172 13.3562C16.9472 13.7626 17.0559 14.207 17.1403 14.6772C17.2239 15.1434 17.2807 15.5856 17.3088 15.9918C17.3364 16.3897 17.3503 16.8027 17.3503 17.2198C17.3503 18.3054 17.0053 19.1842 16.3247 19.8323C15.6527 20.4719 14.7633 20.7964 13.6819 20.7964H3.6684C2.58695 20.7964 1.69797 20.4721 1.02571 19.8323C0.345053 19.1847 -3.8147e-05 18.3057 -3.8147e-05 17.2197C0.000120163 16.8006 0.0142403 16.3873 0.0420074 15.9913Z"
        fill="#B11A50" />
</svg>
    