<svg width="231" height="62" viewBox="0 0 131 42" fill="none" xmlns="http://www.w3.org/2000/svg">
<path d="M44.1068 16.6484C45.2957 16.6484 46.3387 16.8808 47.2358 17.3455C48.1437 17.8103 48.8408 18.475 49.3271 19.3396C49.8243 20.1934 50.0729 21.1878 50.0729 22.3226C50.0729 23.4575 49.8243 24.4518 49.3271 25.3056C48.8408 26.1487 48.1437 26.8026 47.2358 27.2673C46.3387 27.732 45.2957 27.9644 44.1068 27.9644H40.1511V16.6484H44.1068ZM44.0258 26.0352C45.2147 26.0352 46.1334 25.7109 46.7818 25.0625C47.4303 24.414 47.7546 23.5007 47.7546 22.3226C47.7546 21.1445 47.4303 20.2259 46.7818 19.5666C46.1334 18.8965 45.2147 18.5614 44.0258 18.5614H42.4208V26.0352H44.0258ZM54.0416 16.6484V27.9644H51.7719V16.6484H54.0416ZM64.1631 20.0529C63.9037 19.5774 63.547 19.2153 63.0931 18.9667C62.6391 18.7181 62.1095 18.5938 61.5043 18.5938C60.8342 18.5938 60.2398 18.7452 59.721 19.0478C59.2022 19.3504 58.7969 19.7827 58.5051 20.3447C58.2132 20.9068 58.0673 21.5552 58.0673 22.2902C58.0673 23.0468 58.2132 23.706 58.5051 24.2681C58.8077 24.8301 59.2238 25.2624 59.7534 25.565C60.283 25.8677 60.899 26.019 61.6016 26.019C62.4662 26.019 63.1741 25.792 63.7253 25.3381C64.2766 24.8733 64.6386 24.2302 64.8116 23.4088H60.9207V21.6741H67.0488V23.652C66.8975 24.441 66.5733 25.1705 66.0761 25.8406C65.5789 26.5107 64.9358 27.0511 64.1469 27.4618C63.3687 27.8617 62.4932 28.0617 61.5205 28.0617C60.4289 28.0617 59.44 27.8185 58.5537 27.3321C57.6782 26.835 56.9865 26.1487 56.4786 25.2732C55.9814 24.3978 55.7328 23.4034 55.7328 22.2902C55.7328 21.177 55.9814 20.1826 56.4786 19.3072C56.9865 18.4209 57.6782 17.7346 58.5537 17.2482C59.44 16.7511 60.4235 16.5025 61.5043 16.5025C62.7796 16.5025 63.8875 16.8159 64.8278 17.4428C65.7681 18.0588 66.4166 18.9289 66.7732 20.0529H64.1631ZM70.9977 16.6484V27.9644H68.728V16.6484H70.9977Z" fill="#C7003F"/>
<path d="M76.552 22.2902C76.552 21.177 76.8006 20.1826 77.2978 19.3072C77.8057 18.4209 78.4921 17.7346 79.3567 17.2482C80.2321 16.7511 81.2103 16.5025 82.2911 16.5025C83.5556 16.5025 84.6634 16.8267 85.6146 17.4752C86.5657 18.1237 87.2304 19.0208 87.6086 20.1664H84.9985C84.7391 19.626 84.3716 19.2207 83.8961 18.9505C83.4313 18.6803 82.8909 18.5452 82.2749 18.5452C81.6156 18.5452 81.0265 18.7019 80.5078 19.0154C79.9998 19.318 79.5999 19.7503 79.3081 20.3123C79.027 20.8743 78.8865 21.5336 78.8865 22.2902C78.8865 23.0359 79.027 23.6952 79.3081 24.2681C79.5999 24.8301 79.9998 25.2678 80.5078 25.5812C81.0265 25.8839 81.6156 26.0352 82.2749 26.0352C82.8909 26.0352 83.4313 25.9001 83.8961 25.6299C84.3716 25.3489 84.7391 24.9382 84.9985 24.3978H87.6086C87.2304 25.5542 86.5657 26.4567 85.6146 27.1052C84.6743 27.7429 83.5664 28.0617 82.2911 28.0617C81.2103 28.0617 80.2321 27.8185 79.3567 27.3321C78.4921 26.835 77.8057 26.1487 77.2978 25.2732C76.8006 24.3978 76.552 23.4034 76.552 22.2902ZM91.8169 26.1649H95.5457V27.9644H89.5472V16.6484H91.8169V26.1649ZM102.241 28.0779C101.182 28.0779 100.209 27.8293 99.3229 27.3321C98.4366 26.835 97.7341 26.1487 97.2153 25.2732C96.6965 24.387 96.4371 23.3872 96.4371 22.274C96.4371 21.1716 96.6965 20.1826 97.2153 19.3072C97.7341 18.4209 98.4366 17.7292 99.3229 17.232C100.209 16.7349 101.182 16.4863 102.241 16.4863C103.311 16.4863 104.284 16.7349 105.159 17.232C106.045 17.7292 106.743 18.4209 107.251 19.3072C107.769 20.1826 108.029 21.1716 108.029 22.274C108.029 23.3872 107.769 24.387 107.251 25.2732C106.743 26.1487 106.045 26.835 105.159 27.3321C104.273 27.8293 103.3 28.0779 102.241 28.0779ZM102.241 26.0514C102.922 26.0514 103.522 25.9001 104.041 25.5975C104.559 25.284 104.965 24.8409 105.256 24.2681C105.548 23.6952 105.694 23.0305 105.694 22.274C105.694 21.5174 105.548 20.8581 105.256 20.2961C104.965 19.7233 104.559 19.2856 104.041 18.9829C103.522 18.6803 102.922 18.529 102.241 18.529C101.56 18.529 100.955 18.6803 100.425 18.9829C99.9065 19.2856 99.5012 19.7233 99.2094 20.2961C98.9176 20.8581 98.7717 21.5174 98.7717 22.274C98.7717 23.0305 98.9176 23.6952 99.2094 24.2681C99.5012 24.8409 99.9065 25.284 100.425 25.5975C100.955 25.9001 101.56 26.0514 102.241 26.0514ZM111.955 16.6484V23.652C111.955 24.4194 112.155 25.0084 112.554 25.4191C112.954 25.819 113.516 26.019 114.241 26.019C114.975 26.019 115.543 25.819 115.943 25.4191C116.343 25.0084 116.543 24.4194 116.543 23.652V16.6484H118.829V23.6358C118.829 24.5977 118.618 25.4137 118.196 26.0838C117.786 26.7431 117.229 27.2403 116.526 27.5753C115.835 27.9104 115.062 28.0779 114.208 28.0779C113.365 28.0779 112.598 27.9104 111.906 27.5753C111.225 27.2403 110.685 26.7431 110.285 26.0838C109.885 25.4137 109.685 24.5977 109.685 23.6358V16.6484H111.955ZM124.977 16.6484C126.166 16.6484 127.209 16.8808 128.106 17.3455C129.014 17.8103 129.711 18.475 130.197 19.3396C130.695 20.1934 130.943 21.1878 130.943 22.3226C130.943 23.4575 130.695 24.4518 130.197 25.3056C129.711 26.1487 129.014 26.8026 128.106 27.2673C127.209 27.732 126.166 27.9644 124.977 27.9644H121.021V16.6484H124.977ZM124.896 26.0352C126.085 26.0352 127.004 25.7109 127.652 25.0625C128.301 24.414 128.625 23.5007 128.625 22.3226C128.625 21.1445 128.301 20.2259 127.652 19.5666C127.004 18.8965 126.085 18.5614 124.896 18.5614H123.291V26.0352H124.896Z" fill="#FAAB00"/>
<path d="M18.8931 41.5099C17.5993 41.5099 16.3121 41.1783 15.1613 40.5087L3.73181 33.8773C1.43031 32.5445 0 30.0544 0 27.3823V14.126C0 11.4539 1.43031 8.96383 3.73181 7.63104L15.1613 0.999593C17.4628 -0.333198 20.3234 -0.333198 22.6314 0.999593L34.0609 7.63104C36.3624 8.96383 37.7927 11.4539 37.7927 14.126V27.3823C37.7927 30.0544 36.3624 32.5445 34.0609 33.8773L22.6314 40.5087C21.4807 41.1783 20.1869 41.5099 18.8996 41.5099H18.8931ZM18.8931 4.13978C18.3145 4.13978 17.7359 4.28931 17.2223 4.58837L5.78626 11.2198C4.75254 11.8179 4.1154 12.9297 4.1154 14.126V27.3823C4.1154 28.5786 4.75904 29.6903 5.78626 30.2885L17.2223 36.9199C18.256 37.518 19.5368 37.518 20.564 36.9199L32 30.2885C33.0337 29.6903 33.6708 28.5786 33.6708 27.3823V14.126C33.6708 12.9297 33.0272 11.8179 32 11.2198L20.564 4.58837C20.0504 4.28931 19.4717 4.13978 18.8931 4.13978V4.13978Z" fill="#C7003F"/>
<path d="M26.8032 24.4789H23.4327V22.571H25.1816C25.445 22.571 25.6585 22.3575 25.6585 22.094C25.6585 21.8306 25.445 21.6171 25.1816 21.6171H23.4327V20.6632H25.1816C25.445 20.6632 25.6585 20.4496 25.6585 20.1862C25.6585 19.9228 25.445 19.7092 25.1816 19.7092H23.4327V18.7553H25.1816C25.445 18.7553 25.6585 18.5418 25.6585 18.2784C25.6585 18.0149 25.445 17.8014 25.1816 17.8014H23.4327V16.8475H25.1816C25.445 16.8475 25.6585 16.6339 25.6585 16.3705C25.6585 16.1071 25.445 15.8935 25.1816 15.8935H23.4327V13.9857H26.8032C27.0667 13.9857 27.2802 14.1992 27.2802 14.4627V24.0019C27.2802 24.2653 27.0667 24.4789 26.8032 24.4789Z" fill="#FAAB00"/>
<path d="M11.4769 13.9857H14.8474V15.8935H13.0986C12.8352 15.8935 12.6216 16.1071 12.6216 16.3705C12.6216 16.6339 12.8352 16.8475 13.0986 16.8475H14.8474V17.8014H13.0986C12.8352 17.8014 12.6216 18.0149 12.6216 18.2784C12.6216 18.5418 12.8352 18.7553 13.0986 18.7553H14.8474V19.7092H13.0986C12.8352 19.7092 12.6216 19.9228 12.6216 20.1862C12.6216 20.4496 12.8352 20.6632 13.0986 20.6632H14.8474V21.6171H13.0986C12.8352 21.6171 12.6216 21.8306 12.6216 22.094C12.6216 22.3575 12.8352 22.571 13.0986 22.571H14.8474V24.4789H11.4769C11.2135 24.4789 10.9999 24.2653 10.9999 24.0019V14.4627C10.9999 14.1992 11.2135 13.9857 11.4769 13.9857Z" fill="#FAAB00"/>
<path d="M11.477 27.3725H12.9836C13.1277 26.9451 13.4662 26.6066 13.8936 26.4625V25.4328H14.8475V26.4733C15.2599 26.6232 15.5851 26.9557 15.7256 27.3725H17.7532C17.8973 26.9451 18.2358 26.6066 18.6632 26.4625V25.401H16.2784C16.015 25.401 15.8014 25.1875 15.8014 24.924V13.477C15.8014 13.2136 16.015 13 16.2784 13H22.0019C22.2653 13 22.4789 13.2136 22.4789 13.477V24.924C22.4789 25.1875 22.2653 25.401 22.0019 25.401H19.6171V26.4733C20.0295 26.6232 20.3547 26.9557 20.4953 27.3725H22.5547C22.6952 26.9557 23.0204 26.6232 23.4328 26.4733V25.4328H24.3867V26.4625C24.8141 26.6066 25.1526 26.9451 25.2967 27.3725H26.8033C27.0668 27.3725 27.2803 27.586 27.2803 27.8494C27.2803 28.1128 27.0668 28.3264 26.8033 28.3264H25.2859C25.0839 28.8822 24.5504 29.2803 23.9257 29.2803C23.3009 29.2803 22.7674 28.8822 22.5654 28.3264H20.4845C20.2825 28.8822 19.749 29.2803 19.1243 29.2803C18.4995 29.2803 17.966 28.8822 17.764 28.3264H15.7149C15.5129 28.8822 14.9794 29.2803 14.3546 29.2803C13.7299 29.2803 13.1964 28.8822 12.9944 28.3264H11.477C11.2136 28.3264 11 28.1128 11 27.8494C11 27.586 11.2136 27.3725 11.477 27.3725ZM19.1402 23.525C19.4036 23.525 19.6171 23.3114 19.6171 23.048C19.6171 22.7846 19.4036 22.571 19.1402 22.571C18.8767 22.571 18.6632 22.7846 18.6632 23.048C18.6632 23.3114 18.8767 23.525 19.1402 23.525ZM20.73 14.9396H17.5185C17.2551 14.9396 17.0415 15.1532 17.0415 15.4166C17.0415 15.68 17.2551 15.8936 17.5185 15.8936H20.73C20.9934 15.8936 21.207 15.68 21.207 15.4166C21.207 15.1532 20.9934 14.9396 20.73 14.9396ZM20.73 16.8475H17.5185C17.2551 16.8475 17.0415 17.061 17.0415 17.3245C17.0415 17.5879 17.2551 17.8014 17.5185 17.8014H20.73C20.9934 17.8014 21.207 17.5879 21.207 17.3245C21.207 17.061 20.9934 16.8475 20.73 16.8475ZM20.73 18.7553H17.5503C17.2869 18.7553 17.0733 18.9689 17.0733 19.2323C17.0733 19.4957 17.2869 19.7093 17.5503 19.7093H20.73C20.9934 19.7093 21.207 19.4957 21.207 19.2323C21.207 18.9689 20.9934 18.7553 20.73 18.7553ZM21.207 21.1402C21.207 20.8767 20.9934 20.6632 20.73 20.6632H17.5503C17.2869 20.6632 17.0733 20.8767 17.0733 21.1402C17.0733 21.4036 17.2869 21.6171 17.5503 21.6171H20.73C20.9934 21.6171 21.207 21.4036 21.207 21.1402Z" fill="#FAAB00"/>
</svg>
