<svg width="51" height="47" viewBox="0 0 51 47" fill="none" xmlns="http://www.w3.org/2000/svg">
    <path d="M15.1329 47H34.9805C36.8015 47 38.476 46.0058 39.355 44.4098L49.5012 25.8966C50.3175 24.4053 50.3175 22.5947 49.5012 21.1034L39.3498 2.59018C38.476 0.994211 36.7963 0 34.9753 0H15.1329C13.312 0 11.6375 0.994211 10.7584 2.59018L0.612224 21.1034C-0.204075 22.5947 -0.204075 24.4 0.612224 25.8966L10.7584 44.4098C11.6323 46.0058 13.312 47 15.1329 47ZM18.4819 6.11178H31.6316C33.4526 6.11178 35.127 7.10599 36.0061 8.70196L42.8034 21.1034C43.6197 22.5947 43.6197 24.4 42.8034 25.8966L36.0061 38.298C35.1323 39.894 33.4526 40.8882 31.6316 40.8882H18.4819C16.6609 40.8882 14.9864 39.894 14.1073 38.298L7.31006 25.8966C6.49377 24.4053 6.49377 22.5947 7.31006 21.1034L14.1073 8.70196C14.9812 7.10599 16.6609 6.11178 18.4819 6.11178Z" fill="#B11A50"/>
    <path d="M16.1894 15.1624H20.2721V17.4733H18.1537C17.8347 17.4733 17.576 17.732 17.576 18.051C17.576 18.3701 17.8347 18.6288 18.1537 18.6288H20.2721V19.7843H18.1537C17.8347 19.7843 17.576 20.0429 17.576 20.362C17.576 20.6811 17.8347 20.9397 18.1537 20.9397H20.2721V22.0952H18.1537C17.8347 22.0952 17.576 22.3539 17.576 22.673C17.576 22.992 17.8347 23.2507 18.1537 23.2507H20.2721V24.4062H18.1537C17.8347 24.4062 17.576 24.6648 17.576 24.9839C17.576 25.303 17.8347 25.5616 18.1537 25.5616H20.2721V27.8726H16.1894C15.8703 27.8726 15.6117 27.6139 15.6117 27.2949V15.7401C15.6117 15.421 15.8703 15.1624 16.1894 15.1624Z" fill="#1E3367"/>
    <path d="M34.754 27.8726H30.6714V25.5616H32.7897C33.1088 25.5616 33.3675 25.303 33.3675 24.9839C33.3675 24.6648 33.1088 24.4062 32.7897 24.4062H30.6714V23.2507H32.7897C33.1088 23.2507 33.3675 22.992 33.3675 22.673C33.3675 22.3539 33.1088 22.0952 32.7897 22.0952H30.6714V20.9397H32.7897C33.1088 20.9397 33.3675 20.6811 33.3675 20.362C33.3675 20.0429 33.1088 19.7843 32.7897 19.7843H30.6714V18.6288H32.7897C33.1088 18.6288 33.3675 18.3701 33.3675 18.051C33.3675 17.732 33.1088 17.4733 32.7897 17.4733H30.6714V15.1624H34.754C35.0731 15.1624 35.3318 15.421 35.3318 15.7401V27.2949C35.3318 27.6139 35.0731 27.8726 34.754 27.8726Z" fill="#1E3367"/>
    <path d="M16.1895 31.3776H18.0145C18.1891 30.8599 18.5991 30.4499 19.1167 30.2754V29.0281H20.2722V30.2884C20.7717 30.47 21.1656 30.8727 21.3359 31.3776H23.7919C23.9664 30.8599 24.3764 30.4499 24.8941 30.2754V28.9896H22.0054C21.6863 28.9896 21.4277 28.7309 21.4277 28.4118V14.5461C21.4277 14.2271 21.6863 13.9684 22.0054 13.9684H28.9383C29.2573 13.9684 29.516 14.2271 29.516 14.5461V28.4118C29.516 28.7309 29.2573 28.9896 28.9383 28.9896H26.0496V30.2884C26.5491 30.47 26.943 30.8727 27.1133 31.3776H29.6078C29.778 30.8727 30.1719 30.47 30.6715 30.2884V29.0281H31.827V30.2754C32.3447 30.4499 32.7546 30.8599 32.9292 31.3776H34.7542C35.0732 31.3776 35.3319 31.6362 35.3319 31.9553C35.3319 32.2744 35.0732 32.533 34.7542 32.533H32.9161C32.6714 33.2063 32.0252 33.6885 31.2685 33.6885C30.5117 33.6885 29.8655 33.2063 29.6208 32.533H27.1002C26.8555 33.2063 26.2093 33.6885 25.4526 33.6885C24.6958 33.6885 24.0496 33.2063 23.8049 32.533H21.3228C21.0781 33.2063 20.432 33.6885 19.6752 33.6885C18.9184 33.6885 18.2723 33.2063 18.0276 32.533H16.1895C15.8704 32.533 15.6118 32.2744 15.6118 31.9553C15.6118 31.6362 15.8704 31.3776 16.1895 31.3776ZM25.4718 26.7171C25.7909 26.7171 26.0496 26.4585 26.0496 26.1394C26.0496 25.8203 25.7909 25.5617 25.4718 25.5617C25.1528 25.5617 24.8941 25.8203 24.8941 26.1394C24.8941 26.4585 25.1528 26.7171 25.4718 26.7171ZM27.3976 16.3179H23.5075C23.1885 16.3179 22.9298 16.5765 22.9298 16.8956C22.9298 17.2147 23.1885 17.4733 23.5075 17.4733H27.3976C27.7167 17.4733 27.9754 17.2147 27.9754 16.8956C27.9754 16.5765 27.7167 16.3179 27.3976 16.3179ZM27.3976 18.6288H23.5075C23.1885 18.6288 22.9298 18.8875 22.9298 19.2065C22.9298 19.5256 23.1885 19.7843 23.5075 19.7843H27.3976C27.7167 19.7843 27.9754 19.5256 27.9754 19.2065C27.9754 18.8875 27.7167 18.6288 27.3976 18.6288ZM27.3976 20.9398H23.546C23.227 20.9398 22.9683 21.1984 22.9683 21.5175C22.9683 21.8366 23.227 22.0952 23.546 22.0952H27.3976C27.7167 22.0952 27.9754 21.8366 27.9754 21.5175C27.9754 21.1984 27.7167 20.9398 27.3976 20.9398ZM27.9754 23.8285C27.9754 23.5094 27.7167 23.2507 27.3976 23.2507H23.546C23.227 23.2507 22.9683 23.5094 22.9683 23.8285C22.9683 24.1475 23.227 24.4062 23.546 24.4062H27.3976C27.7167 24.4062 27.9754 24.1475 27.9754 23.8285Z" fill="#1E3367"/>
    </svg>
    