<svg width="18" height="18" viewBox="0 0 18 18" fill="none" xmlns="http://www.w3.org/2000/svg">
<path d="M7 10H1C0.73478 10 0.48043 10.1054 0.29289 10.2929C0.10536 10.4804 0 10.7348 0 11V17C0 17.2652 0.10536 17.5196 0.29289 17.7071C0.48043 17.8946 0.73478 18 1 18H7C7.2652 18 7.5196 17.8946 7.7071 17.7071C7.8946 17.5196 8 17.2652 8 17V11C8 10.7348 7.8946 10.4804 7.7071 10.2929C7.5196 10.1054 7.2652 10 7 10ZM6 16H2V12H6V16ZM17 0H11C10.7348 0 10.4804 0.10536 10.2929 0.29289C10.1054 0.48043 10 0.73478 10 1V7C10 7.2652 10.1054 7.5196 10.2929 7.7071C10.4804 7.8946 10.7348 8 11 8H17C17.2652 8 17.5196 7.8946 17.7071 7.7071C17.8946 7.5196 18 7.2652 18 7V1C18 0.73478 17.8946 0.48043 17.7071 0.29289C17.5196 0.10536 17.2652 0 17 0ZM16 6H12V2H16V6ZM17 13H15V11C15 10.7348 14.8946 10.4804 14.7071 10.2929C14.5196 10.1054 14.2652 10 14 10C13.7348 10 13.4804 10.1054 13.2929 10.2929C13.1054 10.4804 13 10.7348 13 11V13H11C10.7348 13 10.4804 13.1054 10.2929 13.2929C10.1054 13.4804 10 13.7348 10 14C10 14.2652 10.1054 14.5196 10.2929 14.7071C10.4804 14.8946 10.7348 15 11 15H13V17C13 17.2652 13.1054 17.5196 13.2929 17.7071C13.4804 17.8946 13.7348 18 14 18C14.2652 18 14.5196 17.8946 14.7071 17.7071C14.8946 17.5196 15 17.2652 15 17V15H17C17.2652 15 17.5196 14.8946 17.7071 14.7071C17.8946 14.5196 18 14.2652 18 14C18 13.7348 17.8946 13.4804 17.7071 13.2929C17.5196 13.1054 17.2652 13 17 13ZM7 0H1C0.73478 0 0.48043 0.10536 0.29289 0.29289C0.10536 0.48043 0 0.73478 0 1V7C0 7.2652 0.10536 7.5196 0.29289 7.7071C0.48043 7.8946 0.73478 8 1 8H7C7.2652 8 7.5196 7.8946 7.7071 7.7071C7.8946 7.5196 8 7.2652 8 7V1C8 0.73478 7.8946 0.48043 7.7071 0.29289C7.5196 0.10536 7.2652 0 7 0ZM6 6H2V2H6V6Z" fill="white"/>
</svg>
