<svg viewBox="0 0 24 24" fill="none" xmlns="http://www.w3.org/2000/svg">
<path d="M16.5268 6.00006C15.2101 6.00006 13.9913 6.21193 12.9146 6.60287L13.4963 0.832086C13.5469 0.342711 13.1161 -0.0552575 12.6249 0.00614875C8.88896 0.474899 6.00006 3.63943 6.00006 7.47334C6.00006 8.79006 6.21193 10.0088 6.60287 11.0855L0.832086 10.5038C0.342711 10.4532 -0.0552575 10.884 0.00614875 11.3752C0.474899 15.1111 3.63943 18.0001 7.47334 18.0001C8.79006 18.0001 10.0088 17.7882 11.0855 17.3972L10.5038 23.168C10.4546 23.6569 10.884 24.0554 11.3752 23.994C15.1111 23.5252 18.0001 20.3607 18.0001 16.5268C18.0001 15.2101 17.7882 13.9913 17.3972 12.9146L23.168 13.4963C23.6574 13.5455 24.0554 13.1161 23.994 12.6249C23.5252 8.88896 20.3607 6.00006 16.5268 6.00006ZM12.0001 13.5001C11.7034 13.5001 11.4134 13.4121 11.1667 13.2473C10.92 13.0824 10.7278 12.8482 10.6142 12.5741C10.5007 12.3 10.471 11.9984 10.5289 11.7074C10.5868 11.4164 10.7296 11.1492 10.9394 10.9394C11.1492 10.7296 11.4164 10.5868 11.7074 10.5289C11.9984 10.471 12.3 10.5007 12.5741 10.6142C12.8482 10.7278 13.0824 10.92 13.2473 11.1667C13.4121 11.4134 13.5001 11.7034 13.5001 12.0001C13.5001 12.3979 13.342 12.7794 13.0607 13.0607C12.7794 13.342 12.3979 13.5001 12.0001 13.5001Z" />
</svg>
