<svg width="236" height="58" viewBox="0 0 236 58" fill="none" xmlns="http://www.w3.org/2000/svg">
<path d="M18.4172 57.2004H42.5723C44.7885 57.2004 46.8264 55.9904 47.8963 54.0481L60.2445 31.5169C61.2379 29.7019 61.2379 27.4985 60.2445 25.6835L47.8899 3.15233C46.8264 1.20998 44.7821 0 42.566 0H18.4172C16.2011 0 14.1632 1.20998 13.0933 3.15233L0.745096 25.6835C-0.248365 27.4985 -0.248365 29.6956 0.745096 31.5169L13.0933 54.0481C14.1568 55.9904 16.2011 57.2004 18.4172 57.2004V57.2004ZM22.493 7.43822H38.4966C40.7128 7.43822 42.7507 8.6482 43.8205 10.5905L52.093 25.6835C53.0865 27.4985 53.0865 29.6956 52.093 31.5169L43.8205 46.6099C42.757 48.5522 40.7128 49.7622 38.4966 49.7622H22.493C20.2768 49.7622 18.2389 48.5522 17.169 46.6099L8.89657 31.5169C7.90311 29.7019 7.90311 27.4985 8.89657 25.6835L17.169 10.5905C18.2326 8.6482 20.2768 7.43822 22.493 7.43822" fill="#B11A50"/>
<path d="M100.459 30.4858C100.459 32.392 100.1 34.042 99.3828 35.4358C98.6859 36.8091 97.7533 37.9466 96.5849 38.8485C95.4371 39.7299 94.1356 40.3858 92.6803 40.8162C91.225 41.2261 89.7493 41.4311 88.253 41.4311H80.1362V19.6635H88.007C89.5443 19.6635 91.061 19.8479 92.5573 20.2169C94.0536 20.5653 95.3859 21.1597 96.5542 22.0001C97.7225 22.82 98.6654 23.9268 99.3828 25.3206C100.1 26.7144 100.459 28.4361 100.459 30.4858ZM94.9862 30.4858C94.9862 29.256 94.7812 28.2414 94.3713 27.442C93.9818 26.6221 93.4489 25.9765 92.7725 25.5051C92.1166 25.0131 91.3583 24.6647 90.4974 24.4597C89.657 24.2548 88.7859 24.1523 87.884 24.1523H85.2707V36.8808H87.7611C88.7039 36.8808 89.6058 36.7783 90.4666 36.5733C91.348 36.3479 92.1166 35.9892 92.7725 35.4973C93.4489 35.0053 93.9818 34.3494 94.3713 33.5296C94.7812 32.7097 94.9862 31.6951 94.9862 30.4858ZM103.946 41.4311V19.6635H109.234V41.4311H103.946ZM133.073 40.109C132.007 40.6625 130.756 41.1134 129.322 41.4618C127.907 41.8103 126.36 41.9845 124.679 41.9845C122.937 41.9845 121.328 41.7078 119.852 41.1544C118.397 40.601 117.136 39.8221 116.07 38.8177C115.025 37.8134 114.205 36.6143 113.611 35.2206C113.016 33.8063 112.719 32.2383 112.719 30.5165C112.719 28.7743 113.016 27.1961 113.611 25.7818C114.226 24.3675 115.066 23.1684 116.132 22.1846C117.198 21.1802 118.448 20.4116 119.883 19.8787C121.318 19.3458 122.865 19.0793 124.525 19.0793C126.247 19.0793 127.846 19.3458 129.322 19.8787C130.797 20.3911 131.996 21.088 132.919 21.9694L129.598 25.751C129.086 25.1566 128.41 24.6749 127.569 24.306C126.729 23.9166 125.776 23.7218 124.71 23.7218C123.787 23.7218 122.937 23.8961 122.158 24.2445C121.379 24.5725 120.703 25.0439 120.129 25.6588C119.555 26.2532 119.104 26.9706 118.776 27.811C118.469 28.6308 118.315 29.5327 118.315 30.5165C118.315 31.5209 118.458 32.4432 118.745 33.2836C119.032 34.124 119.452 34.8516 120.006 35.4665C120.58 36.0609 121.277 36.5324 122.097 36.8808C122.937 37.2087 123.89 37.3727 124.956 37.3727C125.571 37.3727 126.155 37.3317 126.708 37.2497C127.262 37.1473 127.774 36.9935 128.246 36.7886V32.8224H124.095V28.5796H133.073V40.109ZM137.363 41.4311V19.6635H142.651V41.4311H137.363ZM175.16 30.4858C175.16 32.392 174.801 34.042 174.084 35.4358C173.387 36.8091 172.455 37.9466 171.286 38.8485C170.138 39.7299 168.837 40.3858 167.382 40.8162C165.926 41.2261 164.451 41.4311 162.954 41.4311H154.838V19.6635H162.708C164.246 19.6635 165.762 19.8479 167.259 20.2169C168.755 20.5653 170.087 21.1597 171.255 22.0001C172.424 22.82 173.367 23.9268 174.084 25.3206C174.801 26.7144 175.16 28.4361 175.16 30.4858ZM169.687 30.4858C169.687 29.256 169.483 28.2414 169.073 27.442C168.683 26.6221 168.15 25.9765 167.474 25.5051C166.818 25.0131 166.06 24.6647 165.199 24.4597C164.358 24.2548 163.487 24.1523 162.585 24.1523H159.972V36.8808H162.462C163.405 36.8808 164.307 36.7783 165.168 36.5733C166.049 36.3479 166.818 35.9892 167.474 35.4973C168.15 35.0053 168.683 34.3494 169.073 33.5296C169.483 32.7097 169.687 31.6951 169.687 30.4858ZM192.654 41.4311L190.963 37.1575H182.539L180.94 41.4311H175.222L184.353 19.6635H189.457L198.496 41.4311H192.654ZM186.813 25.4743L184.045 32.9454H189.518L186.813 25.4743ZM207.779 24.1523V41.4311H202.522V24.1523H196.373V19.6635H213.928V24.1523H207.779ZM229.254 41.4311L227.563 37.1575H219.139L217.54 41.4311H211.822L220.953 19.6635H226.057L235.096 41.4311H229.254ZM223.413 25.4743L220.646 32.9454H226.118L223.413 25.4743Z" fill="#B11A50"/>
<path d="M19.7031 18.4531H24.6719V21.2656H22.0938C21.7054 21.2656 21.3906 21.5804 21.3906 21.9688C21.3906 22.3571 21.7054 22.6719 22.0938 22.6719H24.6719V24.0781H22.0938C21.7054 24.0781 21.3906 24.3929 21.3906 24.7812C21.3906 25.1696 21.7054 25.4844 22.0938 25.4844H24.6719V26.8906H22.0938C21.7054 26.8906 21.3906 27.2054 21.3906 27.5938C21.3906 27.9821 21.7054 28.2969 22.0938 28.2969H24.6719V29.7031H22.0938C21.7054 29.7031 21.3906 30.0179 21.3906 30.4062C21.3906 30.7946 21.7054 31.1094 22.0938 31.1094H24.6719V33.9219H19.7031C19.3148 33.9219 19 33.6071 19 33.2188V19.1562C19 18.7679 19.3148 18.4531 19.7031 18.4531Z" fill="#1E3367"/>
<path d="M42.2969 33.9219H37.3281V31.1094H39.9062C40.2946 31.1094 40.6094 30.7946 40.6094 30.4062C40.6094 30.0179 40.2946 29.7031 39.9062 29.7031H37.3281V28.2969H39.9062C40.2946 28.2969 40.6094 27.9821 40.6094 27.5938C40.6094 27.2054 40.2946 26.8906 39.9062 26.8906H37.3281V25.4844H39.9062C40.2946 25.4844 40.6094 25.1696 40.6094 24.7812C40.6094 24.3929 40.2946 24.0781 39.9062 24.0781H37.3281V22.6719H39.9062C40.2946 22.6719 40.6094 22.3571 40.6094 21.9688C40.6094 21.5804 40.2946 21.2656 39.9062 21.2656H37.3281V18.4531H42.2969C42.6852 18.4531 43 18.7679 43 19.1562V33.2188C43 33.6071 42.6852 33.9219 42.2969 33.9219Z" fill="#1E3367"/>
<path d="M19.7031 38.1875H21.9242C22.1366 37.5575 22.6356 37.0585 23.2656 36.8461V35.3281H24.6719V36.862C25.2798 37.0829 25.7592 37.5731 25.9664 38.1875H28.9555C29.1679 37.5575 29.6669 37.0585 30.2969 36.8461V35.2812H26.7812C26.3929 35.2812 26.0781 34.9664 26.0781 34.5781V17.7031C26.0781 17.3148 26.3929 17 26.7812 17H35.2188C35.6071 17 35.9219 17.3148 35.9219 17.7031V34.5781C35.9219 34.9664 35.6071 35.2812 35.2188 35.2812H31.7031V36.862C32.3111 37.0829 32.7905 37.5731 32.9977 38.1875H36.0336C36.2408 37.5731 36.7202 37.0829 37.3281 36.862V35.3281H38.7344V36.8461C39.3644 37.0585 39.8634 37.5575 40.0758 38.1875H42.2969C42.6852 38.1875 43 38.5023 43 38.8906C43 39.2789 42.6852 39.5938 42.2969 39.5938H40.0599C39.7621 40.4131 38.9757 41 38.0547 41C37.1337 41 36.3473 40.4131 36.0495 39.5938H32.9818C32.684 40.4131 31.8976 41 30.9766 41C30.0556 41 29.2691 40.4131 28.9713 39.5938H25.9505C25.6527 40.4131 24.8663 41 23.9453 41C23.0243 41 22.2379 40.4131 21.9401 39.5938H19.7031C19.3148 39.5938 19 39.2789 19 38.8906C19 38.5023 19.3148 38.1875 19.7031 38.1875ZM31 32.5156C31.3883 32.5156 31.7031 32.2008 31.7031 31.8125C31.7031 31.4242 31.3883 31.1094 31 31.1094C30.6117 31.1094 30.2969 31.4242 30.2969 31.8125C30.2969 32.2008 30.6117 32.5156 31 32.5156ZM33.3438 19.8594H28.6094C28.2211 19.8594 27.9062 20.1742 27.9062 20.5625C27.9062 20.9508 28.2211 21.2656 28.6094 21.2656H33.3438C33.7321 21.2656 34.0469 20.9508 34.0469 20.5625C34.0469 20.1742 33.7321 19.8594 33.3438 19.8594ZM33.3438 22.6719H28.6094C28.2211 22.6719 27.9062 22.9867 27.9062 23.375C27.9062 23.7633 28.2211 24.0781 28.6094 24.0781H33.3438C33.7321 24.0781 34.0469 23.7633 34.0469 23.375C34.0469 22.9867 33.7321 22.6719 33.3438 22.6719ZM33.3438 25.4844H28.6562C28.2679 25.4844 27.9531 25.7992 27.9531 26.1875C27.9531 26.5758 28.2679 26.8906 28.6562 26.8906H33.3438C33.7321 26.8906 34.0469 26.5758 34.0469 26.1875C34.0469 25.7992 33.7321 25.4844 33.3438 25.4844ZM34.0469 29C34.0469 28.6117 33.7321 28.2969 33.3438 28.2969H28.6562C28.2679 28.2969 27.9531 28.6117 27.9531 29C27.9531 29.3883 28.2679 29.7031 28.6562 29.7031H33.3438C33.7321 29.7031 34.0469 29.3883 34.0469 29Z" fill="#1E3367"/>
</svg>
